<?xml version="1.0" encoding="utf-8" standalone="no"?>
<!DOCTYPE svg PUBLIC "-//W3C//DTD SVG 1.1//EN"
  "http://www.w3.org/Graphics/SVG/1.1/DTD/svg11.dtd">
<svg xmlns:xlink="http://www.w3.org/1999/xlink" width="576pt" height="1080pt" viewBox="0 0 576 1080" xmlns="http://www.w3.org/2000/svg" version="1.1">
 <metadata>
  <rdf:RDF xmlns:dc="http://purl.org/dc/elements/1.1/" xmlns:cc="http://creativecommons.org/ns#" xmlns:rdf="http://www.w3.org/1999/02/22-rdf-syntax-ns#">
   <cc:Work>
    <dc:type rdf:resource="http://purl.org/dc/dcmitype/StillImage"/>
    <dc:date>2025-04-02T13:11:34.092896</dc:date>
    <dc:format>image/svg+xml</dc:format>
    <dc:creator>
     <cc:Agent>
      <dc:title>Matplotlib v3.10.0, https://matplotlib.org/</dc:title>
     </cc:Agent>
    </dc:creator>
   </cc:Work>
  </rdf:RDF>
 </metadata>
 <defs>
  <style type="text/css">*{stroke-linejoin: round; stroke-linecap: butt}</style>
 </defs>
 <g id="figure_1">
  <g id="patch_1">
   <path d="M 0 1080 
L 576 1080 
L 576 0 
L 0 0 
z
" style="fill: #ffffff"/>
  </g>
  <g id="axes_1">
   <g id="patch_2">
    <path d="M 72 170.165854 
L 518.4 170.165854 
L 518.4 129.6 
L 72 129.6 
L 72 170.165854 
z
" style="fill: none; opacity: 0"/>
   </g>
   <g id="matplotlib.axis_1"/>
   <g id="matplotlib.axis_2"/>
   <g id="line2d_1">
    <path d="M -1 162.157206 
L -0.397551 162.130668 
L 1.790133 162.020647 
L 3.977816 161.895566 
L 6.165499 161.75397 
L 8.353182 161.594364 
L 10.540865 161.415235 
L 12.728548 161.215072 
L 14.916232 160.992386 
L 17.103915 160.745742 
L 19.291598 160.473785 
L 21.479281 160.175276 
L 23.666964 159.849123 
L 25.854648 159.494418 
L 28.042331 159.110476 
L 30.230014 158.696871 
L 32.417697 158.253471 
L 34.60538 157.780476 
L 36.793063 157.278451 
L 38.980747 156.748351 
L 41.16843 156.191551 
L 43.356113 155.609861 
L 45.543796 155.005539 
L 47.731479 154.381301 
L 49.919162 153.740308 
L 52.106846 153.086163 
L 54.294529 152.422886 
L 56.482212 151.754882 
L 58.669895 151.086903 
L 60.857578 150.423997 
L 63.045261 149.771449 
L 65.232945 149.134717 
L 67.420628 148.519359 
L 69.608311 147.930951 
L 71.795994 147.375007 
L 73.983677 146.856896 
L 76.17136 146.381751 
L 78.359044 145.954391 
L 80.546727 145.579234 
L 82.73441 145.260226 
L 84.922093 145.000767 
L 87.109776 144.803655 
L 89.297459 144.671036 
L 91.485143 144.60436 
L 93.672826 144.60436 
L 95.860509 144.671036 
L 98.048192 144.803655 
L 100.235875 145.000767 
L 102.423558 145.260226 
L 104.611242 145.579234 
L 106.798925 145.954391 
L 108.986608 146.381751 
L 111.174291 146.856896 
L 113.361974 147.375007 
L 115.549657 147.930951 
L 117.737341 148.519359 
L 119.925024 149.134717 
L 122.112707 149.771449 
L 124.30039 150.423997 
L 126.488073 151.086903 
L 128.675756 151.754882 
L 130.86344 152.422886 
L 133.051123 153.086163 
L 135.238806 153.740308 
L 137.426489 154.381301 
L 139.614172 155.005539 
L 141.801855 155.609861 
L 143.989539 156.191551 
L 146.177222 156.748351 
L 148.364905 157.278451 
L 150.552588 157.780476 
L 152.740271 158.253471 
L 154.927954 158.696871 
L 157.115638 159.110476 
L 159.303321 159.494418 
L 161.491004 159.849123 
L 163.678687 160.175276 
L 165.86637 160.473785 
L 168.054053 160.745742 
L 170.241737 160.992386 
L 172.42942 161.215072 
L 174.617103 161.415235 
L 176.804786 161.594364 
L 178.992469 161.75397 
L 181.180152 161.895566 
L 183.367836 162.020647 
L 185.555519 162.130668 
L 187.743202 162.227033 
L 189.930885 162.311083 
L 192.118568 162.384084 
L 194.306251 162.447225 
L 196.493935 162.501613 
L 198.681618 162.548267 
L 200.869301 162.588124 
" clip-path="url(#p2170969afe)" style="fill: none; stroke: #1f77b4; stroke-width: 1.5; stroke-linecap: square"/>
   </g>
  </g>
  <g id="axes_2">
   <g id="patch_3">
    <path d="M 72 190.44878 
L 518.4 190.44878 
L 518.4 149.882927 
L 72 149.882927 
L 72 190.44878 
z
" style="fill: none; opacity: 0"/>
   </g>
   <g id="matplotlib.axis_3"/>
   <g id="matplotlib.axis_4"/>
   <g id="line2d_2">
    <path d="M 4.10352 182.859285 
L 6.170862 182.817108 
L 8.238203 182.767738 
L 10.305545 182.710184 
L 12.372886 182.643367 
L 14.440228 182.566117 
L 16.507569 182.477175 
L 18.57491 182.375201 
L 20.642252 182.258775 
L 22.709593 182.126413 
L 24.776935 181.976574 
L 26.844276 181.807677 
L 28.911618 181.618121 
L 30.978959 181.406306 
L 33.046301 181.170658 
L 35.113642 180.909656 
L 37.180984 180.621869 
L 39.248325 180.305984 
L 41.315667 179.960845 
L 43.383008 179.585492 
L 45.45035 179.179201 
L 47.517691 178.741519 
L 49.585033 178.272309 
L 51.652374 177.771781 
L 53.719716 177.240532 
L 55.787057 176.679574 
L 57.854399 176.090362 
L 59.92174 175.474811 
L 61.989082 174.835312 
L 64.056423 174.174736 
L 66.123765 173.49643 
L 68.191106 172.804207 
L 70.258448 172.10232 
L 72.325789 171.395431 
L 74.393131 170.688569 
L 76.460472 169.987074 
L 78.527814 169.296541 
L 80.595155 168.622745 
L 82.662497 167.971566 
L 84.729838 167.348905 
L 86.79718 166.7606 
L 88.864521 166.212329 
L 90.931863 165.709526 
L 92.999204 165.257289 
L 95.066546 164.860294 
L 97.133887 164.522715 
L 99.201229 164.248153 
L 101.26857 164.039568 
L 103.335912 163.899228 
L 105.403253 163.828671 
L 107.470594 163.828671 
L 109.537936 163.899228 
L 111.605277 164.039568 
L 113.672619 164.248153 
L 115.73996 164.522715 
L 117.807302 164.860294 
L 119.874643 165.257289 
L 121.941985 165.709526 
L 124.009326 166.212329 
L 126.076668 166.7606 
L 128.144009 167.348905 
L 130.211351 167.971566 
L 132.278692 168.622745 
L 134.346034 169.296541 
L 136.413375 169.987074 
L 138.480717 170.688569 
L 140.548058 171.395431 
L 142.6154 172.10232 
L 144.682741 172.804207 
L 146.750083 173.49643 
L 148.817424 174.174736 
L 150.884766 174.835312 
L 152.952107 175.474811 
L 155.019449 176.090362 
L 157.08679 176.679574 
L 159.154132 177.240532 
L 161.221473 177.771781 
L 163.288815 178.272309 
L 165.356156 178.741519 
L 167.423498 179.179201 
L 169.490839 179.585492 
L 171.558181 179.960845 
L 173.625522 180.305984 
L 175.692864 180.621869 
L 177.760205 180.909656 
L 179.827547 181.170658 
L 181.894888 181.406306 
L 183.96223 181.618121 
L 186.029571 181.807677 
L 188.096913 181.976574 
L 190.164254 182.126413 
L 192.231595 182.258775 
L 194.298937 182.375201 
L 196.366278 182.477175 
L 198.43362 182.566117 
L 200.500961 182.643367 
L 202.568303 182.710184 
L 204.635644 182.767738 
L 206.702986 182.817108 
L 208.770327 182.859285 
" clip-path="url(#p270d07b0ae)" style="fill: none; stroke: #1f77b4; stroke-width: 1.5; stroke-linecap: square"/>
   </g>
  </g>
  <g id="axes_3">
   <g id="patch_4">
    <path d="M 72 210.731707 
L 518.4 210.731707 
L 518.4 170.165854 
L 72 170.165854 
L 72 210.731707 
z
" style="fill: none; opacity: 0"/>
   </g>
   <g id="matplotlib.axis_5"/>
   <g id="matplotlib.axis_6"/>
   <g id="line2d_3">
    <path d="M 12.063061 203.153978 
L 14.250744 203.114121 
L 16.438427 203.067466 
L 18.62611 203.013079 
L 20.813793 202.949937 
L 23.001477 202.876936 
L 25.18916 202.792887 
L 27.376843 202.696522 
L 29.564526 202.586501 
L 31.752209 202.46142 
L 33.939892 202.319823 
L 36.127576 202.160217 
L 38.315259 201.981089 
L 40.502942 201.780925 
L 42.690625 201.558239 
L 44.878308 201.311595 
L 47.065991 201.039639 
L 49.253675 200.74113 
L 51.441358 200.414977 
L 53.629041 200.060272 
L 55.816724 199.67633 
L 58.004407 199.262725 
L 60.19209 198.819325 
L 62.379774 198.34633 
L 64.567457 197.844305 
L 66.75514 197.314205 
L 68.942823 196.757405 
L 71.130506 196.175714 
L 73.318189 195.571393 
L 75.505873 194.947154 
L 77.693556 194.306161 
L 79.881239 193.652017 
L 82.068922 192.98874 
L 84.256605 192.320736 
L 86.444288 191.652757 
L 88.631972 190.98985 
L 90.819655 190.337303 
L 93.007338 189.700571 
L 95.195021 189.085213 
L 97.382704 188.496804 
L 99.570387 187.940861 
L 101.758071 187.422749 
L 103.945754 186.947605 
L 106.133437 186.520245 
L 108.32112 186.145088 
L 110.508803 185.826079 
L 112.696486 185.56662 
L 114.88417 185.369509 
L 117.071853 185.23689 
L 119.259536 185.170214 
L 121.447219 185.170214 
L 123.634902 185.23689 
L 125.822585 185.369509 
L 128.010269 185.56662 
L 130.197952 185.826079 
L 132.385635 186.145088 
L 134.573318 186.520245 
L 136.761001 186.947605 
L 138.948684 187.422749 
L 141.136368 187.940861 
L 143.324051 188.496804 
L 145.511734 189.085213 
L 147.699417 189.700571 
L 149.8871 190.337303 
L 152.074783 190.98985 
L 154.262467 191.652757 
L 156.45015 192.320736 
L 158.637833 192.98874 
L 160.825516 193.652017 
L 163.013199 194.306161 
L 165.200882 194.947154 
L 167.388566 195.571393 
L 169.576249 196.175714 
L 171.763932 196.757405 
L 173.951615 197.314205 
L 176.139298 197.844305 
L 178.326981 198.34633 
L 180.514665 198.819325 
L 182.702348 199.262725 
L 184.890031 199.67633 
L 187.077714 200.060272 
L 189.265397 200.414977 
L 191.45308 200.74113 
L 193.640764 201.039639 
L 195.828447 201.311595 
L 198.01613 201.558239 
L 200.203813 201.780925 
L 202.391496 201.981089 
L 204.579179 202.160217 
L 206.766863 202.319823 
L 208.954546 202.46142 
L 211.142229 202.586501 
L 213.329912 202.696522 
L 215.517595 202.792887 
L 217.705278 202.876936 
L 219.892962 202.949937 
L 222.080645 203.013079 
L 224.268328 203.067466 
L 226.456011 203.114121 
L 228.643694 203.153978 
" clip-path="url(#pa0c6b4b9fd)" style="fill: none; stroke: #1f77b4; stroke-width: 1.5; stroke-linecap: square"/>
   </g>
  </g>
  <g id="axes_4">
   <g id="patch_5">
    <path d="M 72 231.014634 
L 518.4 231.014634 
L 518.4 190.44878 
L 72 190.44878 
L 72 231.014634 
z
" style="fill: none; opacity: 0"/>
   </g>
   <g id="matplotlib.axis_7"/>
   <g id="matplotlib.axis_8"/>
   <g id="line2d_4">
    <path d="M 43.736175 223.395842 
L 45.554455 223.347887 
L 47.372734 223.291754 
L 49.191013 223.226317 
L 51.009293 223.150348 
L 52.827572 223.062516 
L 54.645851 222.961391 
L 56.46413 222.845449 
L 58.28241 222.713076 
L 60.100689 222.562583 
L 61.918968 222.392219 
L 63.737247 222.200188 
L 65.555527 221.984667 
L 67.373806 221.743838 
L 69.192085 221.475911 
L 71.010365 221.179158 
L 72.828644 220.851951 
L 74.646923 220.492797 
L 76.465202 220.100382 
L 78.283482 219.673615 
L 80.101761 219.211671 
L 81.92004 218.714037 
L 83.73832 218.180555 
L 85.556599 217.611466 
L 87.374878 217.007449 
L 89.193157 216.369653 
L 91.011437 215.699733 
L 92.829716 214.999866 
L 94.647995 214.27277 
L 96.466275 213.52171 
L 98.284554 212.750492 
L 100.102833 211.96345 
L 101.921112 211.165421 
L 103.739392 210.361705 
L 105.557671 209.558018 
L 107.37595 208.760435 
L 109.194229 207.975315 
L 111.012509 207.209224 
L 112.830788 206.468849 
L 114.649067 205.760898 
L 116.467347 205.092009 
L 118.285626 204.468637 
L 120.103905 203.896962 
L 121.922184 203.382779 
L 123.740464 202.931405 
L 125.558743 202.547586 
L 127.377022 202.235415 
L 129.195302 201.998258 
L 131.013581 201.838695 
L 132.83186 201.758474 
L 134.650139 201.758474 
L 136.468419 201.838695 
L 138.286698 201.998258 
L 140.104977 202.235415 
L 141.923257 202.547586 
L 143.741536 202.931405 
L 145.559815 203.382779 
L 147.378094 203.896962 
L 149.196374 204.468637 
L 151.014653 205.092009 
L 152.832932 205.760898 
L 154.651211 206.468849 
L 156.469491 207.209224 
L 158.28777 207.975315 
L 160.106049 208.760435 
L 161.924329 209.558018 
L 163.742608 210.361705 
L 165.560887 211.165421 
L 167.379166 211.96345 
L 169.197446 212.750492 
L 171.015725 213.52171 
L 172.834004 214.27277 
L 174.652284 214.999866 
L 176.470563 215.699733 
L 178.288842 216.369653 
L 180.107121 217.007449 
L 181.925401 217.611466 
L 183.74368 218.180555 
L 185.561959 218.714037 
L 187.380238 219.211671 
L 189.198518 219.673615 
L 191.016797 220.100382 
L 192.835076 220.492797 
L 194.653356 220.851951 
L 196.471635 221.179158 
L 198.289914 221.475911 
L 200.108193 221.743838 
L 201.926473 221.984667 
L 203.744752 222.200188 
L 205.563031 222.392219 
L 207.381311 222.562583 
L 209.19959 222.713076 
L 211.017869 222.845449 
L 212.836148 222.961391 
L 214.654428 223.062516 
L 216.472707 223.150348 
L 218.290986 223.226317 
L 220.109266 223.291754 
L 221.927545 223.347887 
L 223.745824 223.395842 
" clip-path="url(#p55a8ec0992)" style="fill: none; stroke: #1f77b4; stroke-width: 1.5; stroke-linecap: square"/>
   </g>
  </g>
  <g id="axes_5">
   <g id="patch_6">
    <path d="M 72 251.297561 
L 518.4 251.297561 
L 518.4 210.731707 
L 72 210.731707 
L 72 251.297561 
z
" style="fill: none; opacity: 0"/>
   </g>
   <g id="matplotlib.axis_9"/>
   <g id="matplotlib.axis_10"/>
   <g id="line2d_5">
    <path d="M 48.38938 243.703608 
L 50.414508 243.660551 
L 52.439636 243.610152 
L 54.464764 243.551398 
L 56.489893 243.483189 
L 58.515021 243.404328 
L 60.540149 243.313532 
L 62.565277 243.209432 
L 64.590406 243.09058 
L 66.615534 242.955459 
L 68.640662 242.802496 
L 70.66579 242.630079 
L 72.690919 242.436572 
L 74.716047 242.220341 
L 76.741175 241.979781 
L 78.766303 241.713339 
L 80.791432 241.419553 
L 82.81656 241.097083 
L 84.841688 240.74475 
L 86.866816 240.361573 
L 88.891945 239.946813 
L 90.917073 239.500008 
L 92.942201 239.021016 
L 94.967329 238.510055 
L 96.992458 237.967733 
L 99.017586 237.395082 
L 101.042714 236.793588 
L 103.067842 236.165206 
L 105.092971 235.512377 
L 107.118099 234.838031 
L 109.143227 234.145586 
L 111.168355 233.438934 
L 113.193484 232.722416 
L 115.218612 232.000793 
L 117.24374 231.279196 
L 119.268869 230.563078 
L 121.293997 229.858151 
L 123.319125 229.17031 
L 125.344253 228.505557 
L 127.369382 227.869918 
L 129.39451 227.269349 
L 131.419638 226.70965 
L 133.444766 226.196366 
L 135.469895 225.734702 
L 137.495023 225.329432 
L 139.520151 224.984817 
L 141.545279 224.704531 
L 143.570408 224.491598 
L 145.595536 224.348333 
L 147.620664 224.276306 
L 149.645792 224.276306 
L 151.670921 224.348333 
L 153.696049 224.491598 
L 155.721177 224.704531 
L 157.746305 224.984817 
L 159.771434 225.329432 
L 161.796562 225.734702 
L 163.82169 226.196366 
L 165.846818 226.70965 
L 167.871947 227.269349 
L 169.897075 227.869918 
L 171.922203 228.505557 
L 173.947331 229.17031 
L 175.97246 229.858151 
L 177.997588 230.563078 
L 180.022716 231.279196 
L 182.047844 232.000793 
L 184.072973 232.722416 
L 186.098101 233.438934 
L 188.123229 234.145586 
L 190.148358 234.838031 
L 192.173486 235.512377 
L 194.198614 236.165206 
L 196.223742 236.793588 
L 198.248871 237.395082 
L 200.273999 237.967733 
L 202.299127 238.510055 
L 204.324255 239.021016 
L 206.349384 239.500008 
L 208.374512 239.946813 
L 210.39964 240.361573 
L 212.424768 240.74475 
L 214.449897 241.097083 
L 216.475025 241.419553 
L 218.500153 241.713339 
L 220.525281 241.979781 
L 222.55041 242.220341 
L 224.575538 242.436572 
L 226.600666 242.630079 
L 228.625794 242.802496 
L 230.650923 242.955459 
L 232.676051 243.09058 
L 234.701179 243.209432 
L 236.726307 243.313532 
L 238.751436 243.404328 
L 240.776564 243.483189 
L 242.801692 243.551398 
L 244.82682 243.610152 
L 246.851949 243.660551 
L 248.877077 243.703608 
" clip-path="url(#p61917b5daa)" style="fill: none; stroke: #1f77b4; stroke-width: 1.5; stroke-linecap: square"/>
   </g>
  </g>
  <g id="axes_6">
   <g id="patch_7">
    <path d="M 72 271.580488 
L 518.4 271.580488 
L 518.4 231.014634 
L 72 231.014634 
L 72 271.580488 
z
" style="fill: none; opacity: 0"/>
   </g>
   <g id="matplotlib.axis_11"/>
   <g id="matplotlib.axis_12"/>
   <g id="line2d_6">
    <path d="M 52.617622 264.002231 
L 54.79961 263.96227 
L 56.981597 263.915493 
L 59.163585 263.860964 
L 61.345573 263.797658 
L 63.527561 263.724466 
L 65.709549 263.640197 
L 67.891536 263.543581 
L 70.073524 263.433273 
L 72.255512 263.307865 
L 74.4375 263.165899 
L 76.619487 263.005876 
L 78.801475 262.82628 
L 80.983463 262.625594 
L 83.165451 262.402327 
L 85.347439 262.155039 
L 87.529426 261.882373 
L 89.711414 261.583085 
L 91.893402 261.25608 
L 94.07539 260.90045 
L 96.257377 260.515506 
L 98.439365 260.100821 
L 100.621353 259.656263 
L 102.803341 259.182034 
L 104.985329 258.678698 
L 107.167316 258.147215 
L 109.349304 257.588961 
L 111.531292 257.005753 
L 113.71328 256.399854 
L 115.895267 255.773986 
L 118.077255 255.13132 
L 120.259243 254.475468 
L 122.441231 253.810459 
L 124.623219 253.140712 
L 126.805206 252.470989 
L 128.987194 251.806353 
L 131.169182 251.152102 
L 133.35117 250.513708 
L 135.533157 249.896743 
L 137.715145 249.306799 
L 139.897133 248.749405 
L 142.079121 248.229941 
L 144.261109 247.753556 
L 146.443096 247.325081 
L 148.625084 246.948945 
L 150.807072 246.629103 
L 152.98906 246.368967 
L 155.171047 246.171341 
L 157.353035 246.038376 
L 159.535023 245.971526 
L 161.717011 245.971526 
L 163.898999 246.038376 
L 166.080986 246.171341 
L 168.262974 246.368967 
L 170.444962 246.629103 
L 172.62695 246.948945 
L 174.808937 247.325081 
L 176.990925 247.753556 
L 179.172913 248.229941 
L 181.354901 248.749405 
L 183.536889 249.306799 
L 185.718876 249.896743 
L 187.900864 250.513708 
L 190.082852 251.152102 
L 192.26484 251.806353 
L 194.446827 252.470989 
L 196.628815 253.140712 
L 198.810803 253.810459 
L 200.992791 254.475468 
L 203.174779 255.13132 
L 205.356766 255.773986 
L 207.538754 256.399854 
L 209.720742 257.005753 
L 211.90273 257.588961 
L 214.084717 258.147215 
L 216.266705 258.678698 
L 218.448693 259.182034 
L 220.630681 259.656263 
L 222.812669 260.100821 
L 224.994656 260.515506 
L 227.176644 260.90045 
L 229.358632 261.25608 
L 231.54062 261.583085 
L 233.722607 261.882373 
L 235.904595 262.155039 
L 238.086583 262.402327 
L 240.268571 262.625594 
L 242.450559 262.82628 
L 244.632546 263.005876 
L 246.814534 263.165899 
L 248.996522 263.307865 
L 251.17851 263.433273 
L 253.360497 263.543581 
L 255.542485 263.640197 
L 257.724473 263.724466 
L 259.906461 263.797658 
L 262.088449 263.860964 
L 264.270436 263.915493 
L 266.452424 263.96227 
L 268.634412 264.002231 
" clip-path="url(#p4ece32ee46)" style="fill: none; stroke: #1f77b4; stroke-width: 1.5; stroke-linecap: square"/>
   </g>
  </g>
  <g id="axes_7">
   <g id="patch_8">
    <path d="M 72 291.863415 
L 518.4 291.863415 
L 518.4 251.297561 
L 72 251.297561 
L 72 291.863415 
z
" style="fill: none; opacity: 0"/>
   </g>
   <g id="matplotlib.axis_13"/>
   <g id="matplotlib.axis_14"/>
   <g id="line2d_7">
    <path d="M 115.881347 284.285685 
L 118.069031 284.245828 
L 120.256714 284.199174 
L 122.444397 284.144786 
L 124.63208 284.081645 
L 126.819763 284.008644 
L 129.007446 283.924594 
L 131.19513 283.828229 
L 133.382813 283.718208 
L 135.570496 283.593127 
L 137.758179 283.451531 
L 139.945862 283.291925 
L 142.133545 283.112796 
L 144.321229 282.912633 
L 146.508912 282.689947 
L 148.696595 282.443303 
L 150.884278 282.171346 
L 153.071961 281.872837 
L 155.259644 281.546684 
L 157.447328 281.191979 
L 159.635011 280.808037 
L 161.822694 280.394432 
L 164.010377 279.951032 
L 166.19806 279.478037 
L 168.385743 278.976012 
L 170.573427 278.445912 
L 172.76111 277.889112 
L 174.948793 277.307422 
L 177.136476 276.7031 
L 179.324159 276.078862 
L 181.511842 275.437869 
L 183.699526 274.783724 
L 185.887209 274.120447 
L 188.074892 273.452443 
L 190.262575 272.784464 
L 192.450258 272.121558 
L 194.637941 271.46901 
L 196.825625 270.832278 
L 199.013308 270.21692 
L 201.200991 269.628512 
L 203.388674 269.072568 
L 205.576357 268.554457 
L 207.76404 268.079312 
L 209.951724 267.651952 
L 212.139407 267.276795 
L 214.32709 266.957787 
L 216.514773 266.698328 
L 218.702456 266.501216 
L 220.890139 266.368597 
L 223.077823 266.301921 
L 225.265506 266.301921 
L 227.453189 266.368597 
L 229.640872 266.501216 
L 231.828555 266.698328 
L 234.016238 266.957787 
L 236.203922 267.276795 
L 238.391605 267.651952 
L 240.579288 268.079312 
L 242.766971 268.554457 
L 244.954654 269.072568 
L 247.142337 269.628512 
L 249.330021 270.21692 
L 251.517704 270.832278 
L 253.705387 271.46901 
L 255.89307 272.121558 
L 258.080753 272.784464 
L 260.268436 273.452443 
L 262.45612 274.120447 
L 264.643803 274.783724 
L 266.831486 275.437869 
L 269.019169 276.078862 
L 271.206852 276.7031 
L 273.394535 277.307422 
L 275.582219 277.889112 
L 277.769902 278.445912 
L 279.957585 278.976012 
L 282.145268 279.478037 
L 284.332951 279.951032 
L 286.520634 280.394432 
L 288.708318 280.808037 
L 290.896001 281.191979 
L 293.083684 281.546684 
L 295.271367 281.872837 
L 297.45905 282.171346 
L 299.646733 282.443303 
L 301.834417 282.689947 
L 304.0221 282.912633 
L 306.209783 283.112796 
L 308.397466 283.291925 
L 310.585149 283.451531 
L 312.772832 283.593127 
L 314.960516 283.718208 
L 317.148199 283.828229 
L 319.335882 283.924594 
L 321.523565 284.008644 
L 323.711248 284.081645 
L 325.898931 284.144786 
L 328.086615 284.199174 
L 330.274298 284.245828 
L 332.461981 284.285685 
" clip-path="url(#pce784b2a4b)" style="fill: none; stroke: #1f77b4; stroke-width: 1.5; stroke-linecap: square"/>
   </g>
  </g>
  <g id="axes_8">
   <g id="patch_9">
    <path d="M 72 312.146341 
L 518.4 312.146341 
L 518.4 271.580488 
L 72 271.580488 
L 72 312.146341 
z
" style="fill: none; opacity: 0"/>
   </g>
   <g id="matplotlib.axis_15"/>
   <g id="matplotlib.axis_16"/>
   <g id="line2d_8">
    <path d="M 158.357632 304.450906 
L 159.740179 304.387838 
L 161.122726 304.314014 
L 162.505273 304.227953 
L 163.88782 304.128041 
L 165.270368 304.012527 
L 166.652915 303.879532 
L 168.035462 303.727048 
L 169.418009 303.552955 
L 170.800556 303.355032 
L 172.183103 303.130976 
L 173.56565 302.878422 
L 174.948197 302.594977 
L 176.330744 302.278246 
L 177.713291 301.925878 
L 179.095838 301.535599 
L 180.478385 301.105267 
L 181.860932 300.632919 
L 183.243479 300.116828 
L 184.626026 299.555558 
L 186.008573 298.948025 
L 187.39112 298.293554 
L 188.773667 297.591937 
L 190.156214 296.84349 
L 191.538761 296.049107 
L 192.921308 295.2103 
L 194.303855 294.329243 
L 195.686402 293.408801 
L 197.068949 292.452549 
L 198.451496 291.46478 
L 199.834043 290.4505 
L 201.21659 289.41541 
L 202.599137 288.365869 
L 203.981684 287.308848 
L 205.364231 286.251867 
L 206.746778 285.202912 
L 208.129325 284.170348 
L 209.511872 283.162812 
L 210.894419 282.189095 
L 212.276966 281.258023 
L 213.659513 280.378321 
L 215.04206 279.558484 
L 216.424607 278.806636 
L 217.807154 278.1304 
L 219.189701 277.536768 
L 220.572248 277.031982 
L 221.954795 276.621425 
L 223.337342 276.309525 
L 224.719889 276.099673 
L 226.102436 275.994168 
L 227.484983 275.994168 
L 228.86753 276.099673 
L 230.250077 276.309525 
L 231.632624 276.621425 
L 233.015171 277.031982 
L 234.397718 277.536768 
L 235.780265 278.1304 
L 237.162813 278.806636 
L 238.54536 279.558484 
L 239.927907 280.378321 
L 241.310454 281.258023 
L 242.693001 282.189095 
L 244.075548 283.162812 
L 245.458095 284.170348 
L 246.840642 285.202912 
L 248.223189 286.251867 
L 249.605736 287.308848 
L 250.988283 288.365869 
L 252.37083 289.41541 
L 253.753377 290.4505 
L 255.135924 291.46478 
L 256.518471 292.452549 
L 257.901018 293.408801 
L 259.283565 294.329243 
L 260.666112 295.2103 
L 262.048659 296.049107 
L 263.431206 296.84349 
L 264.813753 297.591937 
L 266.1963 298.293554 
L 267.578847 298.948025 
L 268.961394 299.555558 
L 270.343941 300.116828 
L 271.726488 300.632919 
L 273.109035 301.105267 
L 274.491582 301.535599 
L 275.874129 301.925878 
L 277.256676 302.278246 
L 278.639223 302.594977 
L 280.02177 302.878422 
L 281.404317 303.130976 
L 282.786864 303.355032 
L 284.169411 303.552955 
L 285.551958 303.727048 
L 286.934505 303.879532 
L 288.317052 304.012527 
L 289.699599 304.128041 
L 291.082146 304.227953 
L 292.464693 304.314014 
L 293.84724 304.387838 
L 295.229787 304.450906 
" clip-path="url(#pd363776af8)" style="fill: none; stroke: #1f77b4; stroke-width: 1.5; stroke-linecap: square"/>
   </g>
  </g>
  <g id="axes_9">
   <g id="patch_10">
    <path d="M 72 332.429268 
L 518.4 332.429268 
L 518.4 291.863415 
L 72 291.863415 
L 72 332.429268 
z
" style="fill: none; opacity: 0"/>
   </g>
   <g id="matplotlib.axis_17"/>
   <g id="matplotlib.axis_18"/>
   <g id="line2d_9">
    <path d="M 138.550751 324.851539 
L 140.738434 324.811682 
L 142.926118 324.765027 
L 145.113801 324.71064 
L 147.301484 324.647498 
L 149.489167 324.574497 
L 151.67685 324.490448 
L 153.864533 324.394083 
L 156.052217 324.284062 
L 158.2399 324.158981 
L 160.427583 324.017384 
L 162.615266 323.857778 
L 164.802949 323.67865 
L 166.990632 323.478486 
L 169.178316 323.2558 
L 171.365999 323.009156 
L 173.553682 322.7372 
L 175.741365 322.438691 
L 177.929048 322.112538 
L 180.116731 321.757833 
L 182.304415 321.373891 
L 184.492098 320.960286 
L 186.679781 320.516886 
L 188.867464 320.043891 
L 191.055147 319.541866 
L 193.24283 319.011766 
L 195.430514 318.454966 
L 197.618197 317.873275 
L 199.80588 317.268954 
L 201.993563 316.644715 
L 204.181246 316.003722 
L 206.368929 315.349578 
L 208.556613 314.686301 
L 210.744296 314.018297 
L 212.931979 313.350318 
L 215.119662 312.687411 
L 217.307345 312.034864 
L 219.495028 311.398132 
L 221.682712 310.782774 
L 223.870395 310.194365 
L 226.058078 309.638422 
L 228.245761 309.12031 
L 230.433444 308.645166 
L 232.621127 308.217806 
L 234.808811 307.842649 
L 236.996494 307.52364 
L 239.184177 307.264181 
L 241.37186 307.06707 
L 243.559543 306.93445 
L 245.747226 306.867775 
L 247.93491 306.867775 
L 250.122593 306.93445 
L 252.310276 307.06707 
L 254.497959 307.264181 
L 256.685642 307.52364 
L 258.873325 307.842649 
L 261.061009 308.217806 
L 263.248692 308.645166 
L 265.436375 309.12031 
L 267.624058 309.638422 
L 269.811741 310.194365 
L 271.999425 310.782774 
L 274.187108 311.398132 
L 276.374791 312.034864 
L 278.562474 312.687411 
L 280.750157 313.350318 
L 282.93784 314.018297 
L 285.125524 314.686301 
L 287.313207 315.349578 
L 289.50089 316.003722 
L 291.688573 316.644715 
L 293.876256 317.268954 
L 296.063939 317.873275 
L 298.251623 318.454966 
L 300.439306 319.011766 
L 302.626989 319.541866 
L 304.814672 320.043891 
L 307.002355 320.516886 
L 309.190038 320.960286 
L 311.377722 321.373891 
L 313.565405 321.757833 
L 315.753088 322.112538 
L 317.940771 322.438691 
L 320.128454 322.7372 
L 322.316137 323.009156 
L 324.503821 323.2558 
L 326.691504 323.478486 
L 328.879187 323.67865 
L 331.06687 323.857778 
L 333.254553 324.017384 
L 335.442236 324.158981 
L 337.62992 324.284062 
L 339.817603 324.394083 
L 342.005286 324.490448 
L 344.192969 324.574497 
L 346.380652 324.647498 
L 348.568335 324.71064 
L 350.756019 324.765027 
L 352.943702 324.811682 
L 355.131385 324.851539 
" clip-path="url(#pd305ceb64f)" style="fill: none; stroke: #1f77b4; stroke-width: 1.5; stroke-linecap: square"/>
   </g>
  </g>
  <g id="axes_10">
   <g id="patch_11">
    <path d="M 72 352.712195 
L 518.4 352.712195 
L 518.4 312.146341 
L 72 312.146341 
L 72 352.712195 
z
" style="fill: none; opacity: 0"/>
   </g>
   <g id="matplotlib.axis_19"/>
   <g id="matplotlib.axis_20"/>
   <g id="line2d_10">
    <path d="M 225.721831 345.095898 
L 227.558963 345.048436 
L 229.396096 344.992879 
L 231.233229 344.928114 
L 233.070362 344.852924 
L 234.907495 344.765993 
L 236.744628 344.665907 
L 238.581761 344.551154 
L 240.418894 344.420139 
L 242.256027 344.271191 
L 244.09316 344.102576 
L 245.930293 343.912515 
L 247.767425 343.699206 
L 249.604558 343.460848 
L 251.441691 343.195671 
L 253.278824 342.901964 
L 255.115957 342.578114 
L 256.95309 342.222646 
L 258.790223 341.834258 
L 260.627356 341.411871 
L 262.464489 340.954668 
L 264.301622 340.462141 
L 266.138755 339.934134 
L 267.975888 339.370885 
L 269.81302 338.773067 
L 271.650153 338.141816 
L 273.487286 337.478771 
L 275.324419 336.786086 
L 277.161552 336.066452 
L 278.998685 335.3231 
L 280.835818 334.559797 
L 282.672951 333.780832 
L 284.510084 332.990993 
L 286.347217 332.195525 
L 288.18435 331.400086 
L 290.021482 330.610688 
L 291.858615 329.833625 
L 293.695748 329.075396 
L 295.532881 328.342619 
L 297.370014 327.641934 
L 299.207147 326.979909 
L 301.04428 326.362935 
L 302.881413 325.797126 
L 304.718546 325.28822 
L 306.555679 324.841478 
L 308.392812 324.461598 
L 310.229944 324.152631 
L 312.067077 323.917908 
L 313.90421 323.759983 
L 315.741343 323.680584 
L 317.578476 323.680584 
L 319.415609 323.759983 
L 321.252742 323.917908 
L 323.089875 324.152631 
L 324.927008 324.461598 
L 326.764141 324.841478 
L 328.601274 325.28822 
L 330.438406 325.797126 
L 332.275539 326.362935 
L 334.112672 326.979909 
L 335.949805 327.641934 
L 337.786938 328.342619 
L 339.624071 329.075396 
L 341.461204 329.833625 
L 343.298337 330.610688 
L 345.13547 331.400086 
L 346.972603 332.195525 
L 348.809736 332.990993 
L 350.646868 333.780832 
L 352.484001 334.559797 
L 354.321134 335.3231 
L 356.158267 336.066452 
L 357.9954 336.786086 
L 359.832533 337.478771 
L 361.669666 338.141816 
L 363.506799 338.773067 
L 365.343932 339.370885 
L 367.181065 339.934134 
L 369.018198 340.462141 
L 370.85533 340.954668 
L 372.692463 341.411871 
L 374.529596 341.834258 
L 376.366729 342.222646 
L 378.203862 342.578114 
L 380.040995 342.901964 
L 381.878128 343.195671 
L 383.715261 343.460848 
L 385.552394 343.699206 
L 387.389527 343.912515 
L 389.22666 344.102576 
L 391.063792 344.271191 
L 392.900925 344.420139 
L 394.738058 344.551154 
L 396.575191 344.665907 
L 398.412324 344.765993 
L 400.249457 344.852924 
L 402.08659 344.928114 
L 403.923723 344.992879 
L 405.760856 345.048436 
L 407.597989 345.095898 
" clip-path="url(#p11d00439ed)" style="fill: none; stroke: #1f77b4; stroke-width: 1.5; stroke-linecap: square"/>
   </g>
  </g>
  <g id="axes_11">
   <g id="patch_12">
    <path d="M 72 372.995122 
L 518.4 372.995122 
L 518.4 332.429268 
L 72 332.429268 
L 72 372.995122 
z
" style="fill: none; opacity: 0"/>
   </g>
   <g id="matplotlib.axis_21"/>
   <g id="matplotlib.axis_22"/>
   <g id="line2d_11">
    <path d="M 211.95642 365.417392 
L 214.144104 365.377535 
L 216.331787 365.330881 
L 218.51947 365.276493 
L 220.707153 365.213352 
L 222.894836 365.140351 
L 225.082519 365.056302 
L 227.270203 364.959937 
L 229.457886 364.849916 
L 231.645569 364.724835 
L 233.833252 364.583238 
L 236.020935 364.423632 
L 238.208618 364.244503 
L 240.396302 364.04434 
L 242.583985 363.821654 
L 244.771668 363.57501 
L 246.959351 363.303053 
L 249.147034 363.004544 
L 251.334717 362.678391 
L 253.522401 362.323687 
L 255.710084 361.939745 
L 257.897767 361.526139 
L 260.08545 361.082739 
L 262.273133 360.609745 
L 264.460816 360.107719 
L 266.6485 359.57762 
L 268.836183 359.020819 
L 271.023866 358.439129 
L 273.211549 357.834808 
L 275.399232 357.210569 
L 277.586915 356.569576 
L 279.774599 355.915431 
L 281.962282 355.252154 
L 284.149965 354.58415 
L 286.337648 353.916171 
L 288.525331 353.253265 
L 290.713014 352.600717 
L 292.900698 351.963986 
L 295.088381 351.348627 
L 297.276064 350.760219 
L 299.463747 350.204275 
L 301.65143 349.686164 
L 303.839114 349.21102 
L 306.026797 348.78366 
L 308.21448 348.408503 
L 310.402163 348.089494 
L 312.589846 347.830035 
L 314.777529 347.632924 
L 316.965213 347.500304 
L 319.152896 347.433628 
L 321.340579 347.433628 
L 323.528262 347.500304 
L 325.715945 347.632924 
L 327.903628 347.830035 
L 330.091312 348.089494 
L 332.278995 348.408503 
L 334.466678 348.78366 
L 336.654361 349.21102 
L 338.842044 349.686164 
L 341.029727 350.204275 
L 343.217411 350.760219 
L 345.405094 351.348627 
L 347.592777 351.963986 
L 349.78046 352.600717 
L 351.968143 353.253265 
L 354.155826 353.916171 
L 356.34351 354.58415 
L 358.531193 355.252154 
L 360.718876 355.915431 
L 362.906559 356.569576 
L 365.094242 357.210569 
L 367.281925 357.834808 
L 369.469609 358.439129 
L 371.657292 359.020819 
L 373.844975 359.57762 
L 376.032658 360.107719 
L 378.220341 360.609745 
L 380.408024 361.082739 
L 382.595708 361.526139 
L 384.783391 361.939745 
L 386.971074 362.323687 
L 389.158757 362.678391 
L 391.34644 363.004544 
L 393.534123 363.303053 
L 395.721807 363.57501 
L 397.90949 363.821654 
L 400.097173 364.04434 
L 402.284856 364.244503 
L 404.472539 364.423632 
L 406.660222 364.583238 
L 408.847906 364.724835 
L 411.035589 364.849916 
L 413.223272 364.959937 
L 415.410955 365.056302 
L 417.598638 365.140351 
L 419.786321 365.213352 
L 421.974005 365.276493 
L 424.161688 365.330881 
L 426.349371 365.377535 
L 428.537054 365.417392 
" clip-path="url(#p7751b89641)" style="fill: none; stroke: #1f77b4; stroke-width: 1.5; stroke-linecap: square"/>
   </g>
  </g>
  <g id="axes_12">
   <g id="patch_13">
    <path d="M 72 393.278049 
L 518.4 393.278049 
L 518.4 352.712195 
L 72 352.712195 
L 72 393.278049 
z
" style="fill: none; opacity: 0"/>
   </g>
   <g id="matplotlib.axis_23"/>
   <g id="matplotlib.axis_24"/>
   <g id="line2d_12">
    <path d="M 215.949616 385.700319 
L 218.137299 385.660462 
L 220.324982 385.613808 
L 222.512665 385.55942 
L 224.700349 385.496279 
L 226.888032 385.423278 
L 229.075715 385.339228 
L 231.263398 385.242863 
L 233.451081 385.132842 
L 235.638764 385.007761 
L 237.826448 384.866165 
L 240.014131 384.706559 
L 242.201814 384.52743 
L 244.389497 384.327267 
L 246.57718 384.104581 
L 248.764863 383.857937 
L 250.952547 383.58598 
L 253.14023 383.287471 
L 255.327913 382.961318 
L 257.515596 382.606613 
L 259.703279 382.222672 
L 261.890962 381.809066 
L 264.078646 381.365666 
L 266.266329 380.892672 
L 268.454012 380.390646 
L 270.641695 379.860546 
L 272.829378 379.303746 
L 275.017061 378.722056 
L 277.204745 378.117735 
L 279.392428 377.493496 
L 281.580111 376.852503 
L 283.767794 376.198358 
L 285.955477 375.535081 
L 288.14316 374.867077 
L 290.330844 374.199098 
L 292.518527 373.536192 
L 294.70621 372.883644 
L 296.893893 372.246913 
L 299.081576 371.631554 
L 301.269259 371.043146 
L 303.456943 370.487202 
L 305.644626 369.969091 
L 307.832309 369.493946 
L 310.019992 369.066586 
L 312.207675 368.691429 
L 314.395359 368.372421 
L 316.583042 368.112962 
L 318.770725 367.91585 
L 320.958408 367.783231 
L 323.146091 367.716555 
L 325.333774 367.716555 
L 327.521458 367.783231 
L 329.709141 367.91585 
L 331.896824 368.112962 
L 334.084507 368.372421 
L 336.27219 368.691429 
L 338.459873 369.066586 
L 340.647557 369.493946 
L 342.83524 369.969091 
L 345.022923 370.487202 
L 347.210606 371.043146 
L 349.398289 371.631554 
L 351.585972 372.246913 
L 353.773656 372.883644 
L 355.961339 373.536192 
L 358.149022 374.199098 
L 360.336705 374.867077 
L 362.524388 375.535081 
L 364.712071 376.198358 
L 366.899755 376.852503 
L 369.087438 377.493496 
L 371.275121 378.117735 
L 373.462804 378.722056 
L 375.650487 379.303746 
L 377.83817 379.860546 
L 380.025854 380.390646 
L 382.213537 380.892672 
L 384.40122 381.365666 
L 386.588903 381.809066 
L 388.776586 382.222672 
L 390.964269 382.606613 
L 393.151953 382.961318 
L 395.339636 383.287471 
L 397.527319 383.58598 
L 399.715002 383.857937 
L 401.902685 384.104581 
L 404.090368 384.327267 
L 406.278052 384.52743 
L 408.465735 384.706559 
L 410.653418 384.866165 
L 412.841101 385.007761 
L 415.028784 385.132842 
L 417.216467 385.242863 
L 419.404151 385.339228 
L 421.591834 385.423278 
L 423.779517 385.496279 
L 425.9672 385.55942 
L 428.154883 385.613808 
L 430.342566 385.660462 
L 432.53025 385.700319 
" clip-path="url(#pfeff222601)" style="fill: none; stroke: #1f77b4; stroke-width: 1.5; stroke-linecap: square"/>
   </g>
  </g>
  <g id="axes_13">
   <g id="patch_14">
    <path d="M 72 413.560976 
L 518.4 413.560976 
L 518.4 372.995122 
L 72 372.995122 
L 72 413.560976 
z
" style="fill: none; opacity: 0"/>
   </g>
   <g id="matplotlib.axis_25"/>
   <g id="matplotlib.axis_26"/>
   <g id="line2d_13">
    <path d="M 219.044512 405.983246 
L 221.232195 405.943389 
L 223.419878 405.896735 
L 225.607562 405.842347 
L 227.795245 405.779205 
L 229.982928 405.706205 
L 232.170611 405.622155 
L 234.358294 405.52579 
L 236.545977 405.415769 
L 238.733661 405.290688 
L 240.921344 405.149092 
L 243.109027 404.989486 
L 245.29671 404.810357 
L 247.484393 404.610194 
L 249.672076 404.387508 
L 251.85976 404.140864 
L 254.047443 403.868907 
L 256.235126 403.570398 
L 258.422809 403.244245 
L 260.610492 402.88954 
L 262.798175 402.505598 
L 264.985859 402.091993 
L 267.173542 401.648593 
L 269.361225 401.175598 
L 271.548908 400.673573 
L 273.736591 400.143473 
L 275.924274 399.586673 
L 278.111958 399.004983 
L 280.299641 398.400661 
L 282.487324 397.776422 
L 284.675007 397.13543 
L 286.86269 396.481285 
L 289.050373 395.818008 
L 291.238057 395.150004 
L 293.42574 394.482025 
L 295.613423 393.819119 
L 297.801106 393.166571 
L 299.988789 392.529839 
L 302.176472 391.914481 
L 304.364156 391.326072 
L 306.551839 390.770129 
L 308.739522 390.252018 
L 310.927205 389.776873 
L 313.114888 389.349513 
L 315.302571 388.974356 
L 317.490255 388.655348 
L 319.677938 388.395889 
L 321.865621 388.198777 
L 324.053304 388.066158 
L 326.240987 387.999482 
L 328.42867 387.999482 
L 330.616354 388.066158 
L 332.804037 388.198777 
L 334.99172 388.395889 
L 337.179403 388.655348 
L 339.367086 388.974356 
L 341.554769 389.349513 
L 343.742453 389.776873 
L 345.930136 390.252018 
L 348.117819 390.770129 
L 350.305502 391.326072 
L 352.493185 391.914481 
L 354.680868 392.529839 
L 356.868552 393.166571 
L 359.056235 393.819119 
L 361.243918 394.482025 
L 363.431601 395.150004 
L 365.619284 395.818008 
L 367.806967 396.481285 
L 369.994651 397.13543 
L 372.182334 397.776422 
L 374.370017 398.400661 
L 376.5577 399.004983 
L 378.745383 399.586673 
L 380.933066 400.143473 
L 383.12075 400.673573 
L 385.308433 401.175598 
L 387.496116 401.648593 
L 389.683799 402.091993 
L 391.871482 402.505598 
L 394.059165 402.88954 
L 396.246849 403.244245 
L 398.434532 403.570398 
L 400.622215 403.868907 
L 402.809898 404.140864 
L 404.997581 404.387508 
L 407.185264 404.610194 
L 409.372948 404.810357 
L 411.560631 404.989486 
L 413.748314 405.149092 
L 415.935997 405.290688 
L 418.12368 405.415769 
L 420.311363 405.52579 
L 422.499047 405.622155 
L 424.68673 405.706205 
L 426.874413 405.779205 
L 429.062096 405.842347 
L 431.249779 405.896735 
L 433.437462 405.943389 
L 435.625146 405.983246 
" clip-path="url(#p42af6861b2)" style="fill: none; stroke: #1f77b4; stroke-width: 1.5; stroke-linecap: square"/>
   </g>
  </g>
  <g id="axes_14">
   <g id="patch_15">
    <path d="M 72 433.843902 
L 518.4 433.843902 
L 518.4 393.278049 
L 72 393.278049 
L 72 433.843902 
z
" style="fill: none; opacity: 0"/>
   </g>
   <g id="matplotlib.axis_27"/>
   <g id="matplotlib.axis_28"/>
   <g id="line2d_14">
    <path d="M 259.477835 426.266173 
L 261.665518 426.226316 
L 263.853201 426.179661 
L 266.040884 426.125274 
L 268.228567 426.062132 
L 270.416251 425.989131 
L 272.603934 425.905082 
L 274.791617 425.808717 
L 276.9793 425.698696 
L 279.166983 425.573615 
L 281.354666 425.432018 
L 283.54235 425.272412 
L 285.730033 425.093284 
L 287.917716 424.89312 
L 290.105399 424.670434 
L 292.293082 424.42379 
L 294.480765 424.151834 
L 296.668449 423.853325 
L 298.856132 423.527172 
L 301.043815 423.172467 
L 303.231498 422.788525 
L 305.419181 422.37492 
L 307.606864 421.93152 
L 309.794548 421.458525 
L 311.982231 420.9565 
L 314.169914 420.4264 
L 316.357597 419.8696 
L 318.54528 419.287909 
L 320.732964 418.683588 
L 322.920647 418.059349 
L 325.10833 417.418356 
L 327.296013 416.764212 
L 329.483696 416.100935 
L 331.671379 415.432931 
L 333.859063 414.764952 
L 336.046746 414.102046 
L 338.234429 413.449498 
L 340.422112 412.812766 
L 342.609795 412.197408 
L 344.797478 411.608999 
L 346.985162 411.053056 
L 349.172845 410.534945 
L 351.360528 410.0598 
L 353.548211 409.63244 
L 355.735894 409.257283 
L 357.923577 408.938274 
L 360.111261 408.678815 
L 362.298944 408.481704 
L 364.486627 408.349085 
L 366.67431 408.282409 
L 368.861993 408.282409 
L 371.049676 408.349085 
L 373.23736 408.481704 
L 375.425043 408.678815 
L 377.612726 408.938274 
L 379.800409 409.257283 
L 381.988092 409.63244 
L 384.175775 410.0598 
L 386.363459 410.534945 
L 388.551142 411.053056 
L 390.738825 411.608999 
L 392.926508 412.197408 
L 395.114191 412.812766 
L 397.301874 413.449498 
L 399.489558 414.102046 
L 401.677241 414.764952 
L 403.864924 415.432931 
L 406.052607 416.100935 
L 408.24029 416.764212 
L 410.427973 417.418356 
L 412.615657 418.059349 
L 414.80334 418.683588 
L 416.991023 419.287909 
L 419.178706 419.8696 
L 421.366389 420.4264 
L 423.554072 420.9565 
L 425.741756 421.458525 
L 427.929439 421.93152 
L 430.117122 422.37492 
L 432.304805 422.788525 
L 434.492488 423.172467 
L 436.680171 423.527172 
L 438.867855 423.853325 
L 441.055538 424.151834 
L 443.243221 424.42379 
L 445.430904 424.670434 
L 447.618587 424.89312 
L 449.80627 425.093284 
L 451.993954 425.272412 
L 454.181637 425.432018 
L 456.36932 425.573615 
L 458.557003 425.698696 
L 460.744686 425.808717 
L 462.932369 425.905082 
L 465.120053 425.989131 
L 467.307736 426.062132 
L 469.495419 426.125274 
L 471.683102 426.179661 
L 473.870785 426.226316 
L 476.058468 426.266173 
" clip-path="url(#pb8e3034ae0)" style="fill: none; stroke: #1f77b4; stroke-width: 1.5; stroke-linecap: square"/>
   </g>
  </g>
  <g id="axes_15">
   <g id="patch_16">
    <path d="M 72 454.126829 
L 518.4 454.126829 
L 518.4 413.560976 
L 72 413.560976 
L 72 454.126829 
z
" style="fill: none; opacity: 0"/>
   </g>
   <g id="matplotlib.axis_29"/>
   <g id="matplotlib.axis_30"/>
   <g id="line2d_15">
    <path d="M 274.823261 446.5491 
L 277.010945 446.509243 
L 279.198628 446.462588 
L 281.386311 446.408201 
L 283.573994 446.345059 
L 285.761677 446.272058 
L 287.94936 446.188009 
L 290.137044 446.091644 
L 292.324727 445.981623 
L 294.51241 445.856542 
L 296.700093 445.714945 
L 298.887776 445.555339 
L 301.075459 445.376211 
L 303.263143 445.176047 
L 305.450826 444.953361 
L 307.638509 444.706717 
L 309.826192 444.434761 
L 312.013875 444.136252 
L 314.201558 443.810099 
L 316.389242 443.455394 
L 318.576925 443.071452 
L 320.764608 442.657847 
L 322.952291 442.214447 
L 325.139974 441.741452 
L 327.327657 441.239427 
L 329.515341 440.709327 
L 331.703024 440.152527 
L 333.890707 439.570836 
L 336.07839 438.966515 
L 338.266073 438.342276 
L 340.453756 437.701283 
L 342.64144 437.047139 
L 344.829123 436.383862 
L 347.016806 435.715858 
L 349.204489 435.047879 
L 351.392172 434.384972 
L 353.579855 433.732425 
L 355.767539 433.095693 
L 357.955222 432.480335 
L 360.142905 431.891926 
L 362.330588 431.335983 
L 364.518271 430.817871 
L 366.705954 430.342727 
L 368.893638 429.915367 
L 371.081321 429.54021 
L 373.269004 429.221201 
L 375.456687 428.961742 
L 377.64437 428.764631 
L 379.832053 428.632011 
L 382.019737 428.565336 
L 384.20742 428.565336 
L 386.395103 428.632011 
L 388.582786 428.764631 
L 390.770469 428.961742 
L 392.958152 429.221201 
L 395.145836 429.54021 
L 397.333519 429.915367 
L 399.521202 430.342727 
L 401.708885 430.817871 
L 403.896568 431.335983 
L 406.084251 431.891926 
L 408.271935 432.480335 
L 410.459618 433.095693 
L 412.647301 433.732425 
L 414.834984 434.384972 
L 417.022667 435.047879 
L 419.21035 435.715858 
L 421.398034 436.383862 
L 423.585717 437.047139 
L 425.7734 437.701283 
L 427.961083 438.342276 
L 430.148766 438.966515 
L 432.336449 439.570836 
L 434.524133 440.152527 
L 436.711816 440.709327 
L 438.899499 441.239427 
L 441.087182 441.741452 
L 443.274865 442.214447 
L 445.462548 442.657847 
L 447.650232 443.071452 
L 449.837915 443.455394 
L 452.025598 443.810099 
L 454.213281 444.136252 
L 456.400964 444.434761 
L 458.588647 444.706717 
L 460.776331 444.953361 
L 462.964014 445.176047 
L 465.151697 445.376211 
L 467.33938 445.555339 
L 469.527063 445.714945 
L 471.714746 445.856542 
L 473.90243 445.981623 
L 476.090113 446.091644 
L 478.277796 446.188009 
L 480.465479 446.272058 
L 482.653162 446.345059 
L 484.840845 446.408201 
L 487.028529 446.462588 
L 489.216212 446.509243 
L 491.403895 446.5491 
" clip-path="url(#p14385b2835)" style="fill: none; stroke: #1f77b4; stroke-width: 1.5; stroke-linecap: square"/>
   </g>
  </g>
  <g id="axes_16">
   <g id="patch_17">
    <path d="M 72 474.409756 
L 518.4 474.409756 
L 518.4 433.843902 
L 72 433.843902 
L 72 474.409756 
z
" style="fill: none; opacity: 0"/>
   </g>
   <g id="matplotlib.axis_31"/>
   <g id="matplotlib.axis_32"/>
   <g id="line2d_16">
    <path d="M 276.930056 466.832027 
L 279.117739 466.79217 
L 281.305422 466.745515 
L 283.493105 466.691127 
L 285.680788 466.627986 
L 287.868471 466.554985 
L 290.056155 466.470936 
L 292.243838 466.374571 
L 294.431521 466.26455 
L 296.619204 466.139469 
L 298.806887 465.997872 
L 300.99457 465.838266 
L 303.182254 465.659137 
L 305.369937 465.458974 
L 307.55762 465.236288 
L 309.745303 464.989644 
L 311.932986 464.717688 
L 314.120669 464.419179 
L 316.308353 464.093025 
L 318.496036 463.738321 
L 320.683719 463.354379 
L 322.871402 462.940773 
L 325.059085 462.497373 
L 327.246768 462.024379 
L 329.434452 461.522354 
L 331.622135 460.992254 
L 333.809818 460.435453 
L 335.997501 459.853763 
L 338.185184 459.249442 
L 340.372867 458.625203 
L 342.560551 457.98421 
L 344.748234 457.330065 
L 346.935917 456.666788 
L 349.1236 455.998785 
L 351.311283 455.330806 
L 353.498966 454.667899 
L 355.68665 454.015351 
L 357.874333 453.37862 
L 360.062016 452.763261 
L 362.249699 452.174853 
L 364.437382 451.618909 
L 366.625065 451.100798 
L 368.812749 450.625654 
L 371.000432 450.198294 
L 373.188115 449.823137 
L 375.375798 449.504128 
L 377.563481 449.244669 
L 379.751165 449.047558 
L 381.938848 448.914938 
L 384.126531 448.848262 
L 386.314214 448.848262 
L 388.501897 448.914938 
L 390.68958 449.047558 
L 392.877264 449.244669 
L 395.064947 449.504128 
L 397.25263 449.823137 
L 399.440313 450.198294 
L 401.627996 450.625654 
L 403.815679 451.100798 
L 406.003363 451.618909 
L 408.191046 452.174853 
L 410.378729 452.763261 
L 412.566412 453.37862 
L 414.754095 454.015351 
L 416.941778 454.667899 
L 419.129462 455.330806 
L 421.317145 455.998785 
L 423.504828 456.666788 
L 425.692511 457.330065 
L 427.880194 457.98421 
L 430.067877 458.625203 
L 432.255561 459.249442 
L 434.443244 459.853763 
L 436.630927 460.435453 
L 438.81861 460.992254 
L 441.006293 461.522354 
L 443.193976 462.024379 
L 445.38166 462.497373 
L 447.569343 462.940773 
L 449.757026 463.354379 
L 451.944709 463.738321 
L 454.132392 464.093025 
L 456.320075 464.419179 
L 458.507759 464.717688 
L 460.695442 464.989644 
L 462.883125 465.236288 
L 465.070808 465.458974 
L 467.258491 465.659137 
L 469.446174 465.838266 
L 471.633858 465.997872 
L 473.821541 466.139469 
L 476.009224 466.26455 
L 478.196907 466.374571 
L 480.38459 466.470936 
L 482.572273 466.554985 
L 484.759957 466.627986 
L 486.94764 466.691127 
L 489.135323 466.745515 
L 491.323006 466.79217 
L 493.510689 466.832027 
" clip-path="url(#p9cc3a5b15b)" style="fill: none; stroke: #1f77b4; stroke-width: 1.5; stroke-linecap: square"/>
   </g>
  </g>
  <g id="axes_17">
   <g id="patch_18">
    <path d="M 72 494.692683 
L 518.4 494.692683 
L 518.4 454.126829 
L 72 454.126829 
L 72 494.692683 
z
" style="fill: none; opacity: 0"/>
   </g>
   <g id="matplotlib.axis_33"/>
   <g id="matplotlib.axis_34"/>
   <g id="line2d_17">
    <path d="M 289.088664 487.114953 
L 291.276347 487.075096 
L 293.46403 487.028442 
L 295.651713 486.974054 
L 297.839396 486.910913 
L 300.02708 486.837912 
L 302.214763 486.753863 
L 304.402446 486.657498 
L 306.590129 486.547477 
L 308.777812 486.422396 
L 310.965495 486.280799 
L 313.153179 486.121193 
L 315.340862 485.942064 
L 317.528545 485.741901 
L 319.716228 485.519215 
L 321.903911 485.272571 
L 324.091594 485.000614 
L 326.279278 484.702105 
L 328.466961 484.375952 
L 330.654644 484.021248 
L 332.842327 483.637306 
L 335.03001 483.2237 
L 337.217693 482.7803 
L 339.405377 482.307306 
L 341.59306 481.80528 
L 343.780743 481.275181 
L 345.968426 480.71838 
L 348.156109 480.13669 
L 350.343792 479.532369 
L 352.531476 478.90813 
L 354.719159 478.267137 
L 356.906842 477.612992 
L 359.094525 476.949715 
L 361.282208 476.281711 
L 363.469891 475.613732 
L 365.657575 474.950826 
L 367.845258 474.298278 
L 370.032941 473.661547 
L 372.220624 473.046188 
L 374.408307 472.45778 
L 376.59599 471.901836 
L 378.783674 471.383725 
L 380.971357 470.908581 
L 383.15904 470.48122 
L 385.346723 470.106064 
L 387.534406 469.787055 
L 389.722089 469.527596 
L 391.909773 469.330485 
L 394.097456 469.197865 
L 396.285139 469.131189 
L 398.472822 469.131189 
L 400.660505 469.197865 
L 402.848188 469.330485 
L 405.035872 469.527596 
L 407.223555 469.787055 
L 409.411238 470.106064 
L 411.598921 470.48122 
L 413.786604 470.908581 
L 415.974287 471.383725 
L 418.161971 471.901836 
L 420.349654 472.45778 
L 422.537337 473.046188 
L 424.72502 473.661547 
L 426.912703 474.298278 
L 429.100386 474.950826 
L 431.28807 475.613732 
L 433.475753 476.281711 
L 435.663436 476.949715 
L 437.851119 477.612992 
L 440.038802 478.267137 
L 442.226485 478.90813 
L 444.414169 479.532369 
L 446.601852 480.13669 
L 448.789535 480.71838 
L 450.977218 481.275181 
L 453.164901 481.80528 
L 455.352584 482.307306 
L 457.540268 482.7803 
L 459.727951 483.2237 
L 461.915634 483.637306 
L 464.103317 484.021248 
L 466.291 484.375952 
L 468.478683 484.702105 
L 470.666367 485.000614 
L 472.85405 485.272571 
L 475.041733 485.519215 
L 477.229416 485.741901 
L 479.417099 485.942064 
L 481.604782 486.121193 
L 483.792466 486.280799 
L 485.980149 486.422396 
L 488.167832 486.547477 
L 490.355515 486.657498 
L 492.543198 486.753863 
L 494.730881 486.837912 
L 496.918565 486.910913 
L 499.106248 486.974054 
L 501.293931 487.028442 
L 503.481614 487.075096 
L 505.669297 487.114953 
" clip-path="url(#paa8c59a41d)" style="fill: none; stroke: #1f77b4; stroke-width: 1.5; stroke-linecap: square"/>
   </g>
  </g>
  <g id="axes_18">
   <g id="patch_19">
    <path d="M 72 514.97561 
L 518.4 514.97561 
L 518.4 474.409756 
L 72 474.409756 
L 72 514.97561 
z
" style="fill: none; opacity: 0"/>
   </g>
   <g id="matplotlib.axis_35"/>
   <g id="matplotlib.axis_36"/>
   <g id="line2d_18">
    <path d="M 323.146756 507.39788 
L 325.33444 507.358023 
L 327.522123 507.311369 
L 329.709806 507.256981 
L 331.897489 507.19384 
L 334.085172 507.120839 
L 336.272855 507.036789 
L 338.460539 506.940424 
L 340.648222 506.830403 
L 342.835905 506.705322 
L 345.023588 506.563726 
L 347.211271 506.40412 
L 349.398954 506.224991 
L 351.586638 506.024828 
L 353.774321 505.802142 
L 355.962004 505.555498 
L 358.149687 505.283541 
L 360.33737 504.985032 
L 362.525053 504.658879 
L 364.712737 504.304174 
L 366.90042 503.920233 
L 369.088103 503.506627 
L 371.275786 503.063227 
L 373.463469 502.590233 
L 375.651152 502.088207 
L 377.838836 501.558107 
L 380.026519 501.001307 
L 382.214202 500.419617 
L 384.401885 499.815296 
L 386.589568 499.191057 
L 388.777251 498.550064 
L 390.964935 497.895919 
L 393.152618 497.232642 
L 395.340301 496.564638 
L 397.527984 495.896659 
L 399.715667 495.233753 
L 401.90335 494.581205 
L 404.091034 493.944474 
L 406.278717 493.329115 
L 408.4664 492.740707 
L 410.654083 492.184763 
L 412.841766 491.666652 
L 415.029449 491.191507 
L 417.217133 490.764147 
L 419.404816 490.38899 
L 421.592499 490.069982 
L 423.780182 489.810523 
L 425.967865 489.613411 
L 428.155548 489.480792 
L 430.343232 489.414116 
L 432.530915 489.414116 
L 434.718598 489.480792 
L 436.906281 489.613411 
L 439.093964 489.810523 
L 441.281647 490.069982 
L 443.469331 490.38899 
L 445.657014 490.764147 
L 447.844697 491.191507 
L 450.03238 491.666652 
L 452.220063 492.184763 
L 454.407746 492.740707 
L 456.59543 493.329115 
L 458.783113 493.944474 
L 460.970796 494.581205 
L 463.158479 495.233753 
L 465.346162 495.896659 
L 467.533845 496.564638 
L 469.721529 497.232642 
L 471.909212 497.895919 
L 474.096895 498.550064 
L 476.284578 499.191057 
L 478.472261 499.815296 
L 480.659944 500.419617 
L 482.847628 501.001307 
L 485.035311 501.558107 
L 487.222994 502.088207 
L 489.410677 502.590233 
L 491.59836 503.063227 
L 493.786043 503.506627 
L 495.973727 503.920233 
L 498.16141 504.304174 
L 500.349093 504.658879 
L 502.536776 504.985032 
L 504.724459 505.283541 
L 506.912142 505.555498 
L 509.099826 505.802142 
L 511.287509 506.024828 
L 513.475192 506.224991 
L 515.662875 506.40412 
L 517.850558 506.563726 
L 520.038241 506.705322 
L 522.225925 506.830403 
L 524.413608 506.940424 
L 526.601291 507.036789 
L 528.788974 507.120839 
L 530.976657 507.19384 
L 533.16434 507.256981 
L 535.352024 507.311369 
L 537.539707 507.358023 
L 539.72739 507.39788 
" clip-path="url(#p882009e80f)" style="fill: none; stroke: #1f77b4; stroke-width: 1.5; stroke-linecap: square"/>
   </g>
  </g>
  <g id="axes_19">
   <g id="patch_20">
    <path d="M 72 535.258537 
L 518.4 535.258537 
L 518.4 494.692683 
L 72 494.692683 
L 72 535.258537 
z
" style="fill: none; opacity: 0"/>
   </g>
   <g id="matplotlib.axis_37"/>
   <g id="matplotlib.axis_38"/>
   <g id="line2d_19">
    <path d="M 348.522148 527.680807 
L 350.709831 527.64095 
L 352.897514 527.594295 
L 355.085197 527.539908 
L 357.27288 527.476766 
L 359.460563 527.403766 
L 361.648247 527.319716 
L 363.83593 527.223351 
L 366.023613 527.11333 
L 368.211296 526.988249 
L 370.398979 526.846652 
L 372.586662 526.687046 
L 374.774346 526.507918 
L 376.962029 526.307754 
L 379.149712 526.085069 
L 381.337395 525.838424 
L 383.525078 525.566468 
L 385.712761 525.267959 
L 387.900445 524.941806 
L 390.088128 524.587101 
L 392.275811 524.203159 
L 394.463494 523.789554 
L 396.651177 523.346154 
L 398.838861 522.873159 
L 401.026544 522.371134 
L 403.214227 521.841034 
L 405.40191 521.284234 
L 407.589593 520.702544 
L 409.777276 520.098222 
L 411.96496 519.473983 
L 414.152643 518.832991 
L 416.340326 518.178846 
L 418.528009 517.515569 
L 420.715692 516.847565 
L 422.903375 516.179586 
L 425.091059 515.51668 
L 427.278742 514.864132 
L 429.466425 514.2274 
L 431.654108 513.612042 
L 433.841791 513.023633 
L 436.029474 512.46769 
L 438.217158 511.949579 
L 440.404841 511.474434 
L 442.592524 511.047074 
L 444.780207 510.671917 
L 446.96789 510.352909 
L 449.155573 510.09345 
L 451.343257 509.896338 
L 453.53094 509.763719 
L 455.718623 509.697043 
L 457.906306 509.697043 
L 460.093989 509.763719 
L 462.281672 509.896338 
L 464.469356 510.09345 
L 466.657039 510.352909 
L 468.844722 510.671917 
L 471.032405 511.047074 
L 473.220088 511.474434 
L 475.407771 511.949579 
L 477.595455 512.46769 
L 479.783138 513.023633 
L 481.970821 513.612042 
L 484.158504 514.2274 
L 486.346187 514.864132 
L 488.53387 515.51668 
L 490.721554 516.179586 
L 492.909237 516.847565 
L 495.09692 517.515569 
L 497.284603 518.178846 
L 499.472286 518.832991 
L 501.659969 519.473983 
L 503.847653 520.098222 
L 506.035336 520.702544 
L 508.223019 521.284234 
L 510.410702 521.841034 
L 512.598385 522.371134 
L 514.786068 522.873159 
L 516.973752 523.346154 
L 519.161435 523.789554 
L 521.349118 524.203159 
L 523.536801 524.587101 
L 525.724484 524.941806 
L 527.912167 525.267959 
L 530.099851 525.566468 
L 532.287534 525.838424 
L 534.475217 526.085069 
L 536.6629 526.307754 
L 538.850583 526.507918 
L 541.038266 526.687046 
L 543.22595 526.846652 
L 545.413633 526.988249 
L 547.601316 527.11333 
L 549.788999 527.223351 
L 551.976682 527.319716 
L 554.164365 527.403766 
L 556.352049 527.476766 
L 558.539732 527.539908 
L 560.727415 527.594295 
L 562.915098 527.64095 
L 565.102781 527.680807 
" clip-path="url(#p631b435179)" style="fill: none; stroke: #1f77b4; stroke-width: 1.5; stroke-linecap: square"/>
   </g>
  </g>
  <g id="axes_20">
   <g id="patch_21">
    <path d="M 72 555.541463 
L 518.4 555.541463 
L 518.4 514.97561 
L 72 514.97561 
L 72 555.541463 
z
" style="fill: none; opacity: 0"/>
   </g>
   <g id="matplotlib.axis_39"/>
   <g id="matplotlib.axis_40"/>
   <g id="line2d_20">
    <path d="M 348.634515 547.963734 
L 350.822198 547.923877 
L 353.009881 547.877222 
L 355.197564 547.822835 
L 357.385248 547.759693 
L 359.572931 547.686692 
L 361.760614 547.602643 
L 363.948297 547.506278 
L 366.13598 547.396257 
L 368.323663 547.271176 
L 370.511347 547.129579 
L 372.69903 546.969973 
L 374.886713 546.790845 
L 377.074396 546.590681 
L 379.262079 546.367995 
L 381.449762 546.121351 
L 383.637446 545.849395 
L 385.825129 545.550886 
L 388.012812 545.224733 
L 390.200495 544.870028 
L 392.388178 544.486086 
L 394.575861 544.072481 
L 396.763545 543.629081 
L 398.951228 543.156086 
L 401.138911 542.654061 
L 403.326594 542.123961 
L 405.514277 541.567161 
L 407.70196 540.98547 
L 409.889644 540.381149 
L 412.077327 539.75691 
L 414.26501 539.115917 
L 416.452693 538.461773 
L 418.640376 537.798496 
L 420.828059 537.130492 
L 423.015743 536.462513 
L 425.203426 535.799607 
L 427.391109 535.147059 
L 429.578792 534.510327 
L 431.766475 533.894969 
L 433.954158 533.30656 
L 436.141842 532.750617 
L 438.329525 532.232505 
L 440.517208 531.757361 
L 442.704891 531.330001 
L 444.892574 530.954844 
L 447.080257 530.635835 
L 449.267941 530.376376 
L 451.455624 530.179265 
L 453.643307 530.046646 
L 455.83099 529.97997 
L 458.018673 529.97997 
L 460.206356 530.046646 
L 462.39404 530.179265 
L 464.581723 530.376376 
L 466.769406 530.635835 
L 468.957089 530.954844 
L 471.144772 531.330001 
L 473.332456 531.757361 
L 475.520139 532.232505 
L 477.707822 532.750617 
L 479.895505 533.30656 
L 482.083188 533.894969 
L 484.270871 534.510327 
L 486.458555 535.147059 
L 488.646238 535.799607 
L 490.833921 536.462513 
L 493.021604 537.130492 
L 495.209287 537.798496 
L 497.39697 538.461773 
L 499.584654 539.115917 
L 501.772337 539.75691 
L 503.96002 540.381149 
L 506.147703 540.98547 
L 508.335386 541.567161 
L 510.523069 542.123961 
L 512.710753 542.654061 
L 514.898436 543.156086 
L 517.086119 543.629081 
L 519.273802 544.072481 
L 521.461485 544.486086 
L 523.649168 544.870028 
L 525.836852 545.224733 
L 528.024535 545.550886 
L 530.212218 545.849395 
L 532.399901 546.121351 
L 534.587584 546.367995 
L 536.775267 546.590681 
L 538.962951 546.790845 
L 541.150634 546.969973 
L 543.338317 547.129579 
L 545.526 547.271176 
L 547.713683 547.396257 
L 549.901366 547.506278 
L 552.08905 547.602643 
L 554.276733 547.686692 
L 556.464416 547.759693 
L 558.652099 547.822835 
L 560.839782 547.877222 
L 563.027465 547.923877 
L 565.215149 547.963734 
" clip-path="url(#pbbff6d7344)" style="fill: none; stroke: #1f77b4; stroke-width: 1.5; stroke-linecap: square"/>
   </g>
  </g>
  <g id="axes_21">
   <g id="patch_22">
    <path d="M 72 575.82439 
L 518.4 575.82439 
L 518.4 535.258537 
L 72 535.258537 
L 72 575.82439 
z
" style="fill: none; opacity: 0"/>
   </g>
   <g id="matplotlib.axis_41"/>
   <g id="matplotlib.axis_42"/>
   <g id="line2d_21">
    <path d="M 353.171091 568.246661 
L 355.358774 568.206804 
L 357.546457 568.160149 
L 359.73414 568.105762 
L 361.921824 568.04262 
L 364.109507 567.969619 
L 366.29719 567.88557 
L 368.484873 567.789205 
L 370.672556 567.679184 
L 372.86024 567.554103 
L 375.047923 567.412506 
L 377.235606 567.2529 
L 379.423289 567.073772 
L 381.610972 566.873608 
L 383.798655 566.650922 
L 385.986339 566.404278 
L 388.174022 566.132322 
L 390.361705 565.833813 
L 392.549388 565.50766 
L 394.737071 565.152955 
L 396.924754 564.769013 
L 399.112438 564.355408 
L 401.300121 563.912008 
L 403.487804 563.439013 
L 405.675487 562.936988 
L 407.86317 562.406888 
L 410.050853 561.850088 
L 412.238537 561.268397 
L 414.42622 560.664076 
L 416.613903 560.039837 
L 418.801586 559.398844 
L 420.989269 558.7447 
L 423.176952 558.081422 
L 425.364636 557.413419 
L 427.552319 556.74544 
L 429.740002 556.082533 
L 431.927685 555.429986 
L 434.115368 554.793254 
L 436.303051 554.177896 
L 438.490735 553.589487 
L 440.678418 553.033544 
L 442.866101 552.515432 
L 445.053784 552.040288 
L 447.241467 551.612928 
L 449.42915 551.237771 
L 451.616834 550.918762 
L 453.804517 550.659303 
L 455.9922 550.462192 
L 458.179883 550.329572 
L 460.367566 550.262897 
L 462.555249 550.262897 
L 464.742933 550.329572 
L 466.930616 550.462192 
L 469.118299 550.659303 
L 471.305982 550.918762 
L 473.493665 551.237771 
L 475.681348 551.612928 
L 477.869032 552.040288 
L 480.056715 552.515432 
L 482.244398 553.033544 
L 484.432081 553.589487 
L 486.619764 554.177896 
L 488.807447 554.793254 
L 490.995131 555.429986 
L 493.182814 556.082533 
L 495.370497 556.74544 
L 497.55818 557.413419 
L 499.745863 558.081422 
L 501.933546 558.7447 
L 504.12123 559.398844 
L 506.308913 560.039837 
L 508.496596 560.664076 
L 510.684279 561.268397 
L 512.871962 561.850088 
L 515.059645 562.406888 
L 517.247329 562.936988 
L 519.435012 563.439013 
L 521.622695 563.912008 
L 523.810378 564.355408 
L 525.998061 564.769013 
L 528.185744 565.152955 
L 530.373428 565.50766 
L 532.561111 565.833813 
L 534.748794 566.132322 
L 536.936477 566.404278 
L 539.12416 566.650922 
L 541.311843 566.873608 
L 543.499527 567.073772 
L 545.68721 567.2529 
L 547.874893 567.412506 
L 550.062576 567.554103 
L 552.250259 567.679184 
L 554.437942 567.789205 
L 556.625626 567.88557 
L 558.813309 567.969619 
L 561.000992 568.04262 
L 563.188675 568.105762 
L 565.376358 568.160149 
L 567.564041 568.206804 
L 569.751725 568.246661 
" clip-path="url(#p879901668d)" style="fill: none; stroke: #1f77b4; stroke-width: 1.5; stroke-linecap: square"/>
   </g>
  </g>
  <g id="axes_22">
   <g id="patch_23">
    <path d="M 72 596.107317 
L 518.4 596.107317 
L 518.4 555.541463 
L 72 555.541463 
L 72 596.107317 
z
" style="fill: none; opacity: 0"/>
   </g>
   <g id="matplotlib.axis_43"/>
   <g id="matplotlib.axis_44"/>
   <g id="line2d_22">
    <path d="M 366.323877 588.529588 
L 368.51156 588.489731 
L 370.699243 588.443076 
L 372.886927 588.388688 
L 375.07461 588.325547 
L 377.262293 588.252546 
L 379.449976 588.168497 
L 381.637659 588.072132 
L 383.825342 587.962111 
L 386.013026 587.83703 
L 388.200709 587.695433 
L 390.388392 587.535827 
L 392.576075 587.356698 
L 394.763758 587.156535 
L 396.951442 586.933849 
L 399.139125 586.687205 
L 401.326808 586.415249 
L 403.514491 586.11674 
L 405.702174 585.790586 
L 407.889857 585.435882 
L 410.077541 585.05194 
L 412.265224 584.638334 
L 414.452907 584.194934 
L 416.64059 583.72194 
L 418.828273 583.219914 
L 421.015956 582.689815 
L 423.20364 582.133014 
L 425.391323 581.551324 
L 427.579006 580.947003 
L 429.766689 580.322764 
L 431.954372 579.681771 
L 434.142055 579.027626 
L 436.329739 578.364349 
L 438.517422 577.696346 
L 440.705105 577.028367 
L 442.892788 576.36546 
L 445.080471 575.712912 
L 447.268154 575.076181 
L 449.455838 574.460822 
L 451.643521 573.872414 
L 453.831204 573.31647 
L 456.018887 572.798359 
L 458.20657 572.323215 
L 460.394253 571.895855 
L 462.581937 571.520698 
L 464.76962 571.201689 
L 466.957303 570.94223 
L 469.144986 570.745119 
L 471.332669 570.612499 
L 473.520352 570.545823 
L 475.708036 570.545823 
L 477.895719 570.612499 
L 480.083402 570.745119 
L 482.271085 570.94223 
L 484.458768 571.201689 
L 486.646451 571.520698 
L 488.834135 571.895855 
L 491.021818 572.323215 
L 493.209501 572.798359 
L 495.397184 573.31647 
L 497.584867 573.872414 
L 499.77255 574.460822 
L 501.960234 575.076181 
L 504.147917 575.712912 
L 506.3356 576.36546 
L 508.523283 577.028367 
L 510.710966 577.696346 
L 512.898649 578.364349 
L 515.086333 579.027626 
L 517.274016 579.681771 
L 519.461699 580.322764 
L 521.649382 580.947003 
L 523.837065 581.551324 
L 526.024748 582.133014 
L 528.212432 582.689815 
L 530.400115 583.219914 
L 532.587798 583.72194 
L 534.775481 584.194934 
L 536.963164 584.638334 
L 539.150847 585.05194 
L 541.338531 585.435882 
L 543.526214 585.790586 
L 545.713897 586.11674 
L 547.90158 586.415249 
L 550.089263 586.687205 
L 552.276946 586.933849 
L 554.46463 587.156535 
L 556.652313 587.356698 
L 558.839996 587.535827 
L 561.027679 587.695433 
L 563.215362 587.83703 
L 565.403045 587.962111 
L 567.590729 588.072132 
L 569.778412 588.168497 
L 571.966095 588.252546 
L 574.153778 588.325547 
L 576.341461 588.388688 
L 577 588.40506 
" clip-path="url(#p3135b2c9ee)" style="fill: none; stroke: #1f77b4; stroke-width: 1.5; stroke-linecap: square"/>
   </g>
  </g>
  <g id="axes_23">
   <g id="patch_24">
    <path d="M 72 616.390244 
L 518.4 616.390244 
L 518.4 575.82439 
L 72 575.82439 
L 72 616.390244 
z
" style="fill: none; opacity: 0"/>
   </g>
   <g id="matplotlib.axis_45"/>
   <g id="matplotlib.axis_46"/>
   <g id="line2d_23">
    <path d="M 377.806438 608.811002 
L 379.977872 608.770847 
L 382.149306 608.723843 
L 384.32074 608.669048 
L 386.492174 608.605434 
L 388.663608 608.531887 
L 390.835042 608.447209 
L 393.006476 608.350123 
L 395.17791 608.239278 
L 397.349344 608.113262 
L 399.520778 607.970605 
L 401.692212 607.809805 
L 403.863646 607.629336 
L 406.03508 607.427675 
L 408.206514 607.203322 
L 410.377948 606.954832 
L 412.549382 606.680841 
L 414.720816 606.380098 
L 416.89225 606.051504 
L 419.063684 605.694145 
L 421.235118 605.30733 
L 423.406552 604.89063 
L 425.577986 604.443912 
L 427.74942 603.967378 
L 429.920854 603.461596 
L 432.092287 602.927529 
L 434.263721 602.366562 
L 436.435155 601.780519 
L 438.606589 601.171675 
L 440.778023 600.542765 
L 442.949457 599.896976 
L 445.120891 599.237936 
L 447.292325 598.569695 
L 449.463759 597.896693 
L 451.635193 597.223715 
L 453.806627 596.555848 
L 455.978061 595.898417 
L 458.149495 595.256921 
L 460.320929 594.636958 
L 462.492363 594.044146 
L 464.663797 593.484042 
L 466.835231 592.962054 
L 469.006665 592.483354 
L 471.178099 592.052796 
L 473.349533 591.674832 
L 475.520967 591.353436 
L 477.692401 591.092035 
L 479.863835 590.893449 
L 482.035269 590.759837 
L 484.206703 590.692662 
L 486.378137 590.692662 
L 488.549571 590.759837 
L 490.721005 590.893449 
L 492.892439 591.092035 
L 495.063873 591.353436 
L 497.235306 591.674832 
L 499.40674 592.052796 
L 501.578174 592.483354 
L 503.749608 592.962054 
L 505.921042 593.484042 
L 508.092476 594.044146 
L 510.26391 594.636958 
L 512.435344 595.256921 
L 514.606778 595.898417 
L 516.778212 596.555848 
L 518.949646 597.223715 
L 521.12108 597.896693 
L 523.292514 598.569695 
L 525.463948 599.237936 
L 527.635382 599.896976 
L 529.806816 600.542765 
L 531.97825 601.171675 
L 534.149684 601.780519 
L 536.321118 602.366562 
L 538.492552 602.927529 
L 540.663986 603.461596 
L 542.83542 603.967378 
L 545.006854 604.443912 
L 547.178288 604.89063 
L 549.349722 605.30733 
L 551.521156 605.694145 
L 553.69259 606.051504 
L 555.864024 606.380098 
L 558.035458 606.680841 
L 560.206891 606.954832 
L 562.378325 607.203322 
L 564.549759 607.427675 
L 566.721193 607.629336 
L 568.892627 607.809805 
L 571.064061 607.970605 
L 573.235495 608.113262 
L 575.406929 608.239278 
L 577 608.320599 
" clip-path="url(#pe4b3ed0d52)" style="fill: none; stroke: #1f77b4; stroke-width: 1.5; stroke-linecap: square"/>
   </g>
  </g>
  <g id="axes_24">
   <g id="patch_25">
    <path d="M 72 636.673171 
L 518.4 636.673171 
L 518.4 596.107317 
L 72 596.107317 
L 72 636.673171 
z
" style="fill: none; opacity: 0"/>
   </g>
   <g id="matplotlib.axis_47"/>
   <g id="matplotlib.axis_48"/>
   <g id="line2d_24">
    <path d="M 378.406582 629.095441 
L 380.594265 629.055584 
L 382.781948 629.00893 
L 384.969631 628.954542 
L 387.157314 628.891401 
L 389.344998 628.8184 
L 391.532681 628.73435 
L 393.720364 628.637985 
L 395.908047 628.527964 
L 398.09573 628.402883 
L 400.283413 628.261287 
L 402.471097 628.101681 
L 404.65878 627.922552 
L 406.846463 627.722389 
L 409.034146 627.499703 
L 411.221829 627.253059 
L 413.409512 626.981102 
L 415.597196 626.682593 
L 417.784879 626.35644 
L 419.972562 626.001735 
L 422.160245 625.617794 
L 424.347928 625.204188 
L 426.535611 624.760788 
L 428.723295 624.287794 
L 430.910978 623.785768 
L 433.098661 623.255668 
L 435.286344 622.698868 
L 437.474027 622.117178 
L 439.66171 621.512857 
L 441.849394 620.888618 
L 444.037077 620.247625 
L 446.22476 619.59348 
L 448.412443 618.930203 
L 450.600126 618.262199 
L 452.787809 617.59422 
L 454.975493 616.931314 
L 457.163176 616.278766 
L 459.350859 615.642034 
L 461.538542 615.026676 
L 463.726225 614.438268 
L 465.913908 613.882324 
L 468.101592 613.364213 
L 470.289275 612.889068 
L 472.476958 612.461708 
L 474.664641 612.086551 
L 476.852324 611.767543 
L 479.040007 611.508084 
L 481.227691 611.310972 
L 483.415374 611.178353 
L 485.603057 611.111677 
L 487.79074 611.111677 
L 489.978423 611.178353 
L 492.166106 611.310972 
L 494.35379 611.508084 
L 496.541473 611.767543 
L 498.729156 612.086551 
L 500.916839 612.461708 
L 503.104522 612.889068 
L 505.292205 613.364213 
L 507.479889 613.882324 
L 509.667572 614.438268 
L 511.855255 615.026676 
L 514.042938 615.642034 
L 516.230621 616.278766 
L 518.418305 616.931314 
L 520.605988 617.59422 
L 522.793671 618.262199 
L 524.981354 618.930203 
L 527.169037 619.59348 
L 529.35672 620.247625 
L 531.544404 620.888618 
L 533.732087 621.512857 
L 535.91977 622.117178 
L 538.107453 622.698868 
L 540.295136 623.255668 
L 542.482819 623.785768 
L 544.670503 624.287794 
L 546.858186 624.760788 
L 549.045869 625.204188 
L 551.233552 625.617794 
L 553.421235 626.001735 
L 555.608918 626.35644 
L 557.796602 626.682593 
L 559.984285 626.981102 
L 562.171968 627.253059 
L 564.359651 627.499703 
L 566.547334 627.722389 
L 568.735017 627.922552 
L 570.922701 628.101681 
L 573.110384 628.261287 
L 575.298067 628.402883 
L 577 628.500192 
" clip-path="url(#p248d44fef4)" style="fill: none; stroke: #1f77b4; stroke-width: 1.5; stroke-linecap: square"/>
   </g>
  </g>
  <g id="axes_25">
   <g id="patch_26">
    <path d="M 72 656.956098 
L 518.4 656.956098 
L 518.4 616.390244 
L 72 616.390244 
L 72 656.956098 
z
" style="fill: none; opacity: 0"/>
   </g>
   <g id="matplotlib.axis_49">
    <g id="xtick_1">
     <g id="line2d_25">
      <defs>
       <path id="m081639def0" d="M 0 0 
L 0 3.5 
" style="stroke: #000000; stroke-width: 0.8"/>
      </defs>
      <g>
       <use xlink:href="#m081639def0" x="72" y="656.956098" style="stroke: #000000; stroke-width: 0.8"/>
      </g>
     </g>
     <g id="text_1">
      <!-- 0 -->
      <g transform="translate(68.81875 671.554535) scale(0.1 -0.1)">
       <defs>
        <path id="DejaVuSans-30" d="M 2034 4250 
Q 1547 4250 1301 3770 
Q 1056 3291 1056 2328 
Q 1056 1369 1301 889 
Q 1547 409 2034 409 
Q 2525 409 2770 889 
Q 3016 1369 3016 2328 
Q 3016 3291 2770 3770 
Q 2525 4250 2034 4250 
z
M 2034 4750 
Q 2819 4750 3233 4129 
Q 3647 3509 3647 2328 
Q 3647 1150 3233 529 
Q 2819 -91 2034 -91 
Q 1250 -91 836 529 
Q 422 1150 422 2328 
Q 422 3509 836 4129 
Q 1250 4750 2034 4750 
z
" transform="scale(0.015625)"/>
       </defs>
       <use xlink:href="#DejaVuSans-30"/>
      </g>
     </g>
    </g>
    <g id="xtick_2">
     <g id="line2d_26">
      <g>
       <use xlink:href="#m081639def0" x="127.8" y="656.956098" style="stroke: #000000; stroke-width: 0.8"/>
      </g>
     </g>
     <g id="text_2">
      <!-- 25 -->
      <g transform="translate(121.4375 671.554535) scale(0.1 -0.1)">
       <defs>
        <path id="DejaVuSans-32" d="M 1228 531 
L 3431 531 
L 3431 0 
L 469 0 
L 469 531 
Q 828 903 1448 1529 
Q 2069 2156 2228 2338 
Q 2531 2678 2651 2914 
Q 2772 3150 2772 3378 
Q 2772 3750 2511 3984 
Q 2250 4219 1831 4219 
Q 1534 4219 1204 4116 
Q 875 4013 500 3803 
L 500 4441 
Q 881 4594 1212 4672 
Q 1544 4750 1819 4750 
Q 2544 4750 2975 4387 
Q 3406 4025 3406 3419 
Q 3406 3131 3298 2873 
Q 3191 2616 2906 2266 
Q 2828 2175 2409 1742 
Q 1991 1309 1228 531 
z
" transform="scale(0.015625)"/>
        <path id="DejaVuSans-35" d="M 691 4666 
L 3169 4666 
L 3169 4134 
L 1269 4134 
L 1269 2991 
Q 1406 3038 1543 3061 
Q 1681 3084 1819 3084 
Q 2600 3084 3056 2656 
Q 3513 2228 3513 1497 
Q 3513 744 3044 326 
Q 2575 -91 1722 -91 
Q 1428 -91 1123 -41 
Q 819 9 494 109 
L 494 744 
Q 775 591 1075 516 
Q 1375 441 1709 441 
Q 2250 441 2565 725 
Q 2881 1009 2881 1497 
Q 2881 1984 2565 2268 
Q 2250 2553 1709 2553 
Q 1456 2553 1204 2497 
Q 953 2441 691 2322 
L 691 4666 
z
" transform="scale(0.015625)"/>
       </defs>
       <use xlink:href="#DejaVuSans-32"/>
       <use xlink:href="#DejaVuSans-35" transform="translate(63.623047 0)"/>
      </g>
     </g>
    </g>
    <g id="xtick_3">
     <g id="line2d_27">
      <g>
       <use xlink:href="#m081639def0" x="183.6" y="656.956098" style="stroke: #000000; stroke-width: 0.8"/>
      </g>
     </g>
     <g id="text_3">
      <!-- 50 -->
      <g transform="translate(177.2375 671.554535) scale(0.1 -0.1)">
       <use xlink:href="#DejaVuSans-35"/>
       <use xlink:href="#DejaVuSans-30" transform="translate(63.623047 0)"/>
      </g>
     </g>
    </g>
    <g id="xtick_4">
     <g id="line2d_28">
      <g>
       <use xlink:href="#m081639def0" x="239.4" y="656.956098" style="stroke: #000000; stroke-width: 0.8"/>
      </g>
     </g>
     <g id="text_4">
      <!-- 75 -->
      <g transform="translate(233.0375 671.554535) scale(0.1 -0.1)">
       <defs>
        <path id="DejaVuSans-37" d="M 525 4666 
L 3525 4666 
L 3525 4397 
L 1831 0 
L 1172 0 
L 2766 4134 
L 525 4134 
L 525 4666 
z
" transform="scale(0.015625)"/>
       </defs>
       <use xlink:href="#DejaVuSans-37"/>
       <use xlink:href="#DejaVuSans-35" transform="translate(63.623047 0)"/>
      </g>
     </g>
    </g>
    <g id="xtick_5">
     <g id="line2d_29">
      <g>
       <use xlink:href="#m081639def0" x="295.2" y="656.956098" style="stroke: #000000; stroke-width: 0.8"/>
      </g>
     </g>
     <g id="text_5">
      <!-- 100 -->
      <g transform="translate(285.65625 671.554535) scale(0.1 -0.1)">
       <defs>
        <path id="DejaVuSans-31" d="M 794 531 
L 1825 531 
L 1825 4091 
L 703 3866 
L 703 4441 
L 1819 4666 
L 2450 4666 
L 2450 531 
L 3481 531 
L 3481 0 
L 794 0 
L 794 531 
z
" transform="scale(0.015625)"/>
       </defs>
       <use xlink:href="#DejaVuSans-31"/>
       <use xlink:href="#DejaVuSans-30" transform="translate(63.623047 0)"/>
       <use xlink:href="#DejaVuSans-30" transform="translate(127.246094 0)"/>
      </g>
     </g>
    </g>
    <g id="xtick_6">
     <g id="line2d_30">
      <g>
       <use xlink:href="#m081639def0" x="351" y="656.956098" style="stroke: #000000; stroke-width: 0.8"/>
      </g>
     </g>
     <g id="text_6">
      <!-- 125 -->
      <g transform="translate(341.45625 671.554535) scale(0.1 -0.1)">
       <use xlink:href="#DejaVuSans-31"/>
       <use xlink:href="#DejaVuSans-32" transform="translate(63.623047 0)"/>
       <use xlink:href="#DejaVuSans-35" transform="translate(127.246094 0)"/>
      </g>
     </g>
    </g>
    <g id="xtick_7">
     <g id="line2d_31">
      <g>
       <use xlink:href="#m081639def0" x="406.8" y="656.956098" style="stroke: #000000; stroke-width: 0.8"/>
      </g>
     </g>
     <g id="text_7">
      <!-- 150 -->
      <g transform="translate(397.25625 671.554535) scale(0.1 -0.1)">
       <use xlink:href="#DejaVuSans-31"/>
       <use xlink:href="#DejaVuSans-35" transform="translate(63.623047 0)"/>
       <use xlink:href="#DejaVuSans-30" transform="translate(127.246094 0)"/>
      </g>
     </g>
    </g>
    <g id="xtick_8">
     <g id="line2d_32">
      <g>
       <use xlink:href="#m081639def0" x="462.6" y="656.956098" style="stroke: #000000; stroke-width: 0.8"/>
      </g>
     </g>
     <g id="text_8">
      <!-- 175 -->
      <g transform="translate(453.05625 671.554535) scale(0.1 -0.1)">
       <use xlink:href="#DejaVuSans-31"/>
       <use xlink:href="#DejaVuSans-37" transform="translate(63.623047 0)"/>
       <use xlink:href="#DejaVuSans-35" transform="translate(127.246094 0)"/>
      </g>
     </g>
    </g>
    <g id="xtick_9">
     <g id="line2d_33">
      <g>
       <use xlink:href="#m081639def0" x="518.4" y="656.956098" style="stroke: #000000; stroke-width: 0.8"/>
      </g>
     </g>
     <g id="text_9">
      <!-- 200 -->
      <g transform="translate(508.85625 671.554535) scale(0.1 -0.1)">
       <use xlink:href="#DejaVuSans-32"/>
       <use xlink:href="#DejaVuSans-30" transform="translate(63.623047 0)"/>
       <use xlink:href="#DejaVuSans-30" transform="translate(127.246094 0)"/>
      </g>
     </g>
    </g>
    <g id="text_10">
     <!-- Location -->
     <g transform="translate(274.051562 685.23266) scale(0.1 -0.1)">
      <defs>
       <path id="DejaVuSans-4c" d="M 628 4666 
L 1259 4666 
L 1259 531 
L 3531 531 
L 3531 0 
L 628 0 
L 628 4666 
z
" transform="scale(0.015625)"/>
       <path id="DejaVuSans-6f" d="M 1959 3097 
Q 1497 3097 1228 2736 
Q 959 2375 959 1747 
Q 959 1119 1226 758 
Q 1494 397 1959 397 
Q 2419 397 2687 759 
Q 2956 1122 2956 1747 
Q 2956 2369 2687 2733 
Q 2419 3097 1959 3097 
z
M 1959 3584 
Q 2709 3584 3137 3096 
Q 3566 2609 3566 1747 
Q 3566 888 3137 398 
Q 2709 -91 1959 -91 
Q 1206 -91 779 398 
Q 353 888 353 1747 
Q 353 2609 779 3096 
Q 1206 3584 1959 3584 
z
" transform="scale(0.015625)"/>
       <path id="DejaVuSans-63" d="M 3122 3366 
L 3122 2828 
Q 2878 2963 2633 3030 
Q 2388 3097 2138 3097 
Q 1578 3097 1268 2742 
Q 959 2388 959 1747 
Q 959 1106 1268 751 
Q 1578 397 2138 397 
Q 2388 397 2633 464 
Q 2878 531 3122 666 
L 3122 134 
Q 2881 22 2623 -34 
Q 2366 -91 2075 -91 
Q 1284 -91 818 406 
Q 353 903 353 1747 
Q 353 2603 823 3093 
Q 1294 3584 2113 3584 
Q 2378 3584 2631 3529 
Q 2884 3475 3122 3366 
z
" transform="scale(0.015625)"/>
       <path id="DejaVuSans-61" d="M 2194 1759 
Q 1497 1759 1228 1600 
Q 959 1441 959 1056 
Q 959 750 1161 570 
Q 1363 391 1709 391 
Q 2188 391 2477 730 
Q 2766 1069 2766 1631 
L 2766 1759 
L 2194 1759 
z
M 3341 1997 
L 3341 0 
L 2766 0 
L 2766 531 
Q 2569 213 2275 61 
Q 1981 -91 1556 -91 
Q 1019 -91 701 211 
Q 384 513 384 1019 
Q 384 1609 779 1909 
Q 1175 2209 1959 2209 
L 2766 2209 
L 2766 2266 
Q 2766 2663 2505 2880 
Q 2244 3097 1772 3097 
Q 1472 3097 1187 3025 
Q 903 2953 641 2809 
L 641 3341 
Q 956 3463 1253 3523 
Q 1550 3584 1831 3584 
Q 2591 3584 2966 3190 
Q 3341 2797 3341 1997 
z
" transform="scale(0.015625)"/>
       <path id="DejaVuSans-74" d="M 1172 4494 
L 1172 3500 
L 2356 3500 
L 2356 3053 
L 1172 3053 
L 1172 1153 
Q 1172 725 1289 603 
Q 1406 481 1766 481 
L 2356 481 
L 2356 0 
L 1766 0 
Q 1100 0 847 248 
Q 594 497 594 1153 
L 594 3053 
L 172 3053 
L 172 3500 
L 594 3500 
L 594 4494 
L 1172 4494 
z
" transform="scale(0.015625)"/>
       <path id="DejaVuSans-69" d="M 603 3500 
L 1178 3500 
L 1178 0 
L 603 0 
L 603 3500 
z
M 603 4863 
L 1178 4863 
L 1178 4134 
L 603 4134 
L 603 4863 
z
" transform="scale(0.015625)"/>
       <path id="DejaVuSans-6e" d="M 3513 2113 
L 3513 0 
L 2938 0 
L 2938 2094 
Q 2938 2591 2744 2837 
Q 2550 3084 2163 3084 
Q 1697 3084 1428 2787 
Q 1159 2491 1159 1978 
L 1159 0 
L 581 0 
L 581 3500 
L 1159 3500 
L 1159 2956 
Q 1366 3272 1645 3428 
Q 1925 3584 2291 3584 
Q 2894 3584 3203 3211 
Q 3513 2838 3513 2113 
z
" transform="scale(0.015625)"/>
      </defs>
      <use xlink:href="#DejaVuSans-4c"/>
      <use xlink:href="#DejaVuSans-6f" transform="translate(53.962891 0)"/>
      <use xlink:href="#DejaVuSans-63" transform="translate(115.144531 0)"/>
      <use xlink:href="#DejaVuSans-61" transform="translate(170.125 0)"/>
      <use xlink:href="#DejaVuSans-74" transform="translate(231.404297 0)"/>
      <use xlink:href="#DejaVuSans-69" transform="translate(270.613281 0)"/>
      <use xlink:href="#DejaVuSans-6f" transform="translate(298.396484 0)"/>
      <use xlink:href="#DejaVuSans-6e" transform="translate(359.578125 0)"/>
     </g>
    </g>
   </g>
   <g id="matplotlib.axis_50"/>
   <g id="line2d_34">
    <path d="M 388.678958 649.358042 
L 390.666742 649.314177 
L 392.654526 649.262831 
L 394.642311 649.202974 
L 396.630095 649.133482 
L 398.617879 649.05314 
L 400.605664 648.960639 
L 402.593448 648.854583 
L 404.581232 648.733498 
L 406.569017 648.595838 
L 408.556801 648.440002 
L 410.544585 648.264345 
L 412.53237 648.067203 
L 414.520154 647.84691 
L 416.507939 647.60183 
L 418.495723 647.330383 
L 420.483507 647.031078 
L 422.471292 646.702549 
L 424.459076 646.343597 
L 426.44686 645.953222 
L 428.434645 645.53067 
L 430.422429 645.075471 
L 432.410213 644.587481 
L 434.397998 644.06692 
L 436.385782 643.514409 
L 438.373566 642.931 
L 440.361351 642.318206 
L 442.349135 641.678019 
L 444.336919 641.012925 
L 446.324704 640.325911 
L 448.312488 639.620457 
L 450.300273 638.900529 
L 452.288057 638.170551 
L 454.275841 637.43537 
L 456.263626 636.700217 
L 458.25141 635.970646 
L 460.239194 635.252476 
L 462.226979 634.551712 
L 464.214763 633.874471 
L 466.202547 633.22689 
L 468.190332 632.615039 
L 470.178116 632.044824 
L 472.1659 631.521898 
L 474.153685 631.051561 
L 476.141469 630.638677 
L 478.129253 630.287587 
L 480.117038 630.002036 
L 482.104822 629.785102 
L 484.092606 629.639146 
L 486.080391 629.565765 
L 488.068175 629.565765 
L 490.05596 629.639146 
L 492.043744 629.785102 
L 494.031528 630.002036 
L 496.019313 630.287587 
L 498.007097 630.638677 
L 499.994881 631.051561 
L 501.982666 631.521898 
L 503.97045 632.044824 
L 505.958234 632.615039 
L 507.946019 633.22689 
L 509.933803 633.874471 
L 511.921587 634.551712 
L 513.909372 635.252476 
L 515.897156 635.970646 
L 517.88494 636.700217 
L 519.872725 637.43537 
L 521.860509 638.170551 
L 523.848294 638.900529 
L 525.836078 639.620457 
L 527.823862 640.325911 
L 529.811647 641.012925 
L 531.799431 641.678019 
L 533.787215 642.318206 
L 535.775 642.931 
L 537.762784 643.514409 
L 539.750568 644.06692 
L 541.738353 644.587481 
L 543.726137 645.075471 
L 545.713921 645.53067 
L 547.701706 645.953222 
L 549.68949 646.343597 
L 551.677274 646.702549 
L 553.665059 647.031078 
L 555.652843 647.330383 
L 557.640628 647.60183 
L 559.628412 647.84691 
L 561.616196 648.067203 
L 563.603981 648.264345 
L 565.591765 648.440002 
L 567.579549 648.595838 
L 569.567334 648.733498 
L 571.555118 648.854583 
L 573.542902 648.960639 
L 575.530687 649.05314 
L 577 649.112527 
" clip-path="url(#pc58411dfa7)" style="fill: none; stroke: #1f77b4; stroke-width: 1.5; stroke-linecap: square"/>
   </g>
   <g id="patch_27">
    <path d="M 72 656.956098 
L 518.4 656.956098 
" style="fill: none; stroke: #000000; stroke-width: 0.8; stroke-linejoin: miter; stroke-linecap: square"/>
   </g>
  </g>
 </g>
 <defs>
  <clipPath id="p2170969afe">
   <rect x="72" y="129.6" width="446.4" height="40.565854"/>
  </clipPath>
  <clipPath id="p270d07b0ae">
   <rect x="72" y="149.882927" width="446.4" height="40.565854"/>
  </clipPath>
  <clipPath id="pa0c6b4b9fd">
   <rect x="72" y="170.165854" width="446.4" height="40.565854"/>
  </clipPath>
  <clipPath id="p55a8ec0992">
   <rect x="72" y="190.44878" width="446.4" height="40.565854"/>
  </clipPath>
  <clipPath id="p61917b5daa">
   <rect x="72" y="210.731707" width="446.4" height="40.565854"/>
  </clipPath>
  <clipPath id="p4ece32ee46">
   <rect x="72" y="231.014634" width="446.4" height="40.565854"/>
  </clipPath>
  <clipPath id="pce784b2a4b">
   <rect x="72" y="251.297561" width="446.4" height="40.565854"/>
  </clipPath>
  <clipPath id="pd363776af8">
   <rect x="72" y="271.580488" width="446.4" height="40.565854"/>
  </clipPath>
  <clipPath id="pd305ceb64f">
   <rect x="72" y="291.863415" width="446.4" height="40.565854"/>
  </clipPath>
  <clipPath id="p11d00439ed">
   <rect x="72" y="312.146341" width="446.4" height="40.565854"/>
  </clipPath>
  <clipPath id="p7751b89641">
   <rect x="72" y="332.429268" width="446.4" height="40.565854"/>
  </clipPath>
  <clipPath id="pfeff222601">
   <rect x="72" y="352.712195" width="446.4" height="40.565854"/>
  </clipPath>
  <clipPath id="p42af6861b2">
   <rect x="72" y="372.995122" width="446.4" height="40.565854"/>
  </clipPath>
  <clipPath id="pb8e3034ae0">
   <rect x="72" y="393.278049" width="446.4" height="40.565854"/>
  </clipPath>
  <clipPath id="p14385b2835">
   <rect x="72" y="413.560976" width="446.4" height="40.565854"/>
  </clipPath>
  <clipPath id="p9cc3a5b15b">
   <rect x="72" y="433.843902" width="446.4" height="40.565854"/>
  </clipPath>
  <clipPath id="paa8c59a41d">
   <rect x="72" y="454.126829" width="446.4" height="40.565854"/>
  </clipPath>
  <clipPath id="p882009e80f">
   <rect x="72" y="474.409756" width="446.4" height="40.565854"/>
  </clipPath>
  <clipPath id="p631b435179">
   <rect x="72" y="494.692683" width="446.4" height="40.565854"/>
  </clipPath>
  <clipPath id="pbbff6d7344">
   <rect x="72" y="514.97561" width="446.4" height="40.565854"/>
  </clipPath>
  <clipPath id="p879901668d">
   <rect x="72" y="535.258537" width="446.4" height="40.565854"/>
  </clipPath>
  <clipPath id="p3135b2c9ee">
   <rect x="72" y="555.541463" width="446.4" height="40.565854"/>
  </clipPath>
  <clipPath id="pe4b3ed0d52">
   <rect x="72" y="575.82439" width="446.4" height="40.565854"/>
  </clipPath>
  <clipPath id="p248d44fef4">
   <rect x="72" y="596.107317" width="446.4" height="40.565854"/>
  </clipPath>
  <clipPath id="pc58411dfa7">
   <rect x="72" y="616.390244" width="446.4" height="40.565854"/>
  </clipPath>
 </defs>
</svg>
